/* XPM */
static char *c7755f3fb1e440ebec38b980ad1fbfaetMFSs2UtGp42mfCN[] = {
/* columns rows colors chars-per-pixel */
"50 50 7 1 ",
"  c black",
". c #343434",
"X c #2B4B23",
"o c gray25",
"O c #5B5C5B",
"+ c #EC454B",
"@ c white",
/* pixels */
"ooooooooooooX oooooooooooooooooooooooo  oooooooooo",
"ooooooooooooX oooooooooooooooooooooooo ooooooooooo",
"ooooooooooooX oooooooooooooooooooooooo ooooooooooo",
"ooooooooooooX oooooooooooooooooooooooo ooooooooooo",
"oooooooooooo  oooooooooooooooooooooooo  XXXooooooo",
"oooooOOooooo ooo     OOOooooooooooooooX   oooooooo",
"oooooOoooooo  @@@@@@   Oooooooooooooooooo oooooooo",
"ooooooooooo  @@@@@@@@o  OOooooooooooOoooo  ooooooo",
"oooooooooo  X@@@@@@.@@o   ooooooooooOoooo   oooooo",
"oooooooooX Xo@@@@@@.@@ooo OooooooooOOOooo o  ooooo",
"ooooooOO   o@.@@..@.@@ooo  OooooooooOoooo oo ooooo",
"oOOOOO   XXo.+@@.++@.@oooo   oooooooOooo  oo  oooo",
"       Xoooo@@.@@@@@.@oooooo  ooooooooo  Xooo     ",
"oooo oooooooo@..@@..@.ooooooo o         Xooo  oooo",
"oooo oooooooo@@@@@.@.oooooooo   ooXXXXXXoooo ooooo",
"oooo ooooooooo...@...@@@oooooo  oooooooooooo Xoooo",
"oooo ooooooooo@@@@....@.@oooooo  ooooooooooo Xoooo",
"oooo  oooooooo@@@...@.@.@@@ooooo ooooooooooo Xoooo",
"ooooX ooooooo@......@..@ooo@oooo Xoooooooooo Xoooo",
"oooooX  ooooo@.@..@..@@@.ooo@ooo Xoooooooooo ooooo",
"ooOoooX   oo@oo.@..@@.@@.ooo.@oo Xoooooooooo ooooo",
"oooooooXX  @    .@...@@.OOOO@.o  Xoooooooooo  oooo",
"oooooooooo@ooooo@.@@@@.@   @.o  XoooooooOoooX   oo",
"ooooooooo@.ooooo.o....@XX@.@   ooooooooOOOoo  X Xo",
"  ooooooo@@oooooooo@@@@o@.@OOoooooooooooOooo oo   ",
"o   ooooo@@oooooooo o@o@.@  Oooooooooooooooo ooooo",
"ooX   ooo@oooooooo  o@o@@.o Oooooooooooooooo ooooo",
"ooXXX  oo@oooooOOo @@@@.@oo Oooooooooooooooo Ooooo",
"oooooo  o@oOOOO   .@.@.@.oo Oooooooooooooooo Ooooo",
"ooooooo @@@.    o@.@@@@.@@o  oooooooooooooo  Ooooo",
"ooooooo @@.@oooo@@..@@@.@@@o  ooooooooooooo Oooooo",
"ooooooo@.@Xo.ooo@@o o@.ooo@@o ooooooooooXX  Oooooo",
"oooOooo@..ooooo@@oo ooooooo@@  oooooooooX oooooooo",
"ooooooo.  ooooo@oooo ooooooo@@  ooooooo   oooooooo",
"ooooooooo oooo@@oooo ooooooo@.o         o oooooooo",
"ooooooooo oooo@@oooO oooooooo.oooo Xooooo oooooooo",
"ooooooooo ooooo.@ooO oooooooo@ooo  Xoooo       ooo",
"oooooooo  ooooo@@ooO  Xooooo@@ooo Xoooo  XoOOO   o",
"oooooOOO Xoooooo@ooO   XXooo@@ooo oooo  Xooooooo o",
"oOOOO    Xoooooo@ooo o   ooo@@X  oooo  ooooooooo  ",
"      X oooooooo@@oo ooo    @    oooo ooooooooooo ",
"ooooooo  oooooooo@o  ooooooo@ooo  ooo oooooooooooo",
"oooooooX oooooooo@@ Xooooooo@oooo      ooooooooooo",
"oooooooo   ooooo ..@ooooooo@.ooooooooo  oooooooooo",
"ooooooooXX     @@@@@ooooooo@@@@@ooooooo oooooooooo",
"oooooooooooo@@@@@oo@@oooooo@o@@@@@@oooo Xooooooooo",
"ooOoooooooooooo ooooOOOoooooooooooooooo Xooooooooo",
"OOOoooooooooX   ooooooooooooooooooooooo Xooooooooo",
"ooooooooooooX ooooooooooooooooooooooooo oooooooooo",
"ooooooooooooX ooooooooooooooooooooooooo oooooooooo"
};
