/* XPM */
static char *_c570269f9914625d5cac19159d2ce6cf1DMkLWDrV4lTWy1[] = {
/* columns rows colors chars-per-pixel */
"50 50 7 1 ",
"  c black",
". c #343434",
"X c #2B4B23",
"o c gray25",
"O c #5B5C5B",
"+ c #EC454B",
"@ c white",
/* pixels */
"ooooooooooooX oooooooooooooooooooooooo  oooooooooo",
"ooooooooooooX oooooooooooooooooooooooo ooooooooooo",
"ooooooooooooX oooooooooooooooooooooooo ooooooooooo",
"ooooooooooooX oooooooooooooooooooooooo ooooooooooo",
"oooooooooooo  oooooooooooooooooooooooo  XXXooooooo",
"oooooOOooooo ooo     OOOooooooooooooooX   oooooooo",
"oooooOoooooo     XXX   Oooooooooooooooooo oooooooo",
"ooooooooooo  XXXXooooo  OOooooooooooOoooo  ooooooo",
"oooooooooo  Xoooooooooo   oo@@@@@@ooOoooo   oooooo",
"oooooooooX Xooooooooooooo O@@@@@@@@OOOooo o  ooooo",
"ooooooOO   oooooooooooooo @@.@@@@@@oOoooo oo ooooo",
"oOOOOO   XXooOoooooooooooo@@.@@@@@@oOooo  oo  oooo",
"       XooooOOOooooooooooo@@.@..@@.@ooo  Xooo     ",
"oooo ooooooooOoooooooooooo@.@++.@@+.    Xooo  oooo",
"oooo ooooooooooooooooooooo@.@@@@@.@@XXXXoooo ooooo",
"oooo ooooooooooooooooooooo.@..@@..@ooooooooo Xoooo",
"oooo oooooooooooooooooooooo.@.@@@@@ooooooooo Xoooo",
"oooo  oooooooooooooooooooo....@...oooooooooo Xoooo",
"ooooX oooooooooooooooooo@@@...@@@@oooooooooo Xoooo",
"oooooX  ooooooooooooooo@.@.....@@@oooooooooo ooooo",
"ooOoooX   ooooooooOOO@@@.@.@......oooooooooo ooooo",
"oooooooXX           @   @..@......@ooooooooo  oooo",
"ooooooooooooooooooo@ XX.@@@..@..@.@oooooOoooX   oo",
"oooooooooooooooooo@. oo.@@.@@..@.oo@oooOOOoo  X Xo",
"  oooooooooooooooo.@oooo.@@...@.oooo@oooOooo oo   ",
"o   ooooooooooooooo.@.@o@.@@@@.@ooooo@oooooo ooooo",
"ooX   oooooooooooo  o@.@o@....o.oooooo@ooooo ooooo",
"ooXXX  ooooooooOOo ooo@.@@@@@ooooooooo@ooooo Ooooo",
"oooooo  oooOOOO    ooo.@@o@ Oooooooooo@ooooo Ooooo",
"ooooooo o       oo  oooooo@  ooooooooo@@ooo  Ooooo",
"ooooooo   Xoooooooo oooO.@@@@ ooooooooo@ooo Oooooo",
"oooooooo XXoooooooo ooo.@.@.@.ooooooo.@@XX  Oooooo",
"oooOoooo oooooooooo oo@@.@@@@.@oooooo@.@@ oooooooo",
"oooooooo  oooooooooo @@@.@@@..@@oooo.oo@.@oooooooo",
"ooooooooo ooooooooo@@@ooo.@ooo@@       ..@oooooooo",
"ooooooooo oooooooo@@ oooooooooo@@o Xooooo.oooooooo",
"ooooooooo ooooooo@.O ooooooooooo@@ Xoooo       ooo",
"oooooooo  ooooooo@@O  Xoooooooooo.Xoooo  XoOOO   o",
"oooooOOO Xoooooooo@O   XXooooooo@@oooo  Xooooooo o",
"oOOOO    Xoooooooo@@ o   oooXXX@ oooo  ooooooooo  ",
"      X ooooooooooo@ ooo      @@ oooo ooooooooooo ",
"ooooooo  oooooooooo@ ooooooooo@o  ooo oooooooooooo",
"oooooooX ooooooooo @Xoooooooo@@oo      ooooooooooo",
"oooooooo   ooooo   .@ooooooo@..ooooooo  oooooooooo",
"ooooooooXX      @@@@@ooooooo@@@@@oooooo oooooooooo",
"ooooooooooooo@@@@@@o@oooooo@@oo@@@@@ooo Xooooooooo",
"ooOoooooooooooo ooooOOOoooooooooooooooo Xooooooooo",
"OOOoooooooooX   ooooooooooooooooooooooo Xooooooooo",
"ooooooooooooX ooooooooooooooooooooooooo oooooooooo",
"ooooooooooooX ooooooooooooooooooooooooo oooooooooo"
};
