/* XPM */
static char *b119e71533d344f2d62800500e0150e7Qq1ISrquGC1wQiRO[] = {
/* columns rows colors chars-per-pixel */
"50 50 7 1 ",
"  c black",
". c #343434",
"X c #2B4B23",
"o c gray25",
"O c #5B5C5B",
"+ c #EC454B",
"@ c white",
/* pixels */
"ooooooooooooX oooooooooooooooooooooooo  oooooooooo",
"ooooooooooooX oooooooooooooooooooooooo ooooooooooo",
"ooooooooooooX oooooooooooooooooooooooo ooooooooooo",
"ooooooooooooX oooooooooooooooooooooooo ooooooooooo",
"oooooooooooo  oooooooooooooooooooooooo  XXXooooooo",
"oooooOOooooo ooo     OOOooooooooooooooX   oooooooo",
"oooooOoooooo     XXX   Ooooo@@@@@@ooooooo oooooooo",
"ooooooooooo  XXXXooooo  OOo@@@@@@@@oOoooo  ooooooo",
"oooooooooo  Xoooooooooo   @@.@@@@@@oOoooo   oooooo",
"oooooooooX Xooooooooooooo @@.@@@@@@OOOooo o  ooooo",
"ooooooOO   oooooooooooooo @@.@..@@.@Ooooo oo ooooo",
"oOOOOO   XXooOoooooooooooo@.@++.@@+.Oooo  oo  oooo",
"       XooooOOOooooooooooo@.@@@@@.@@ooo  Xooo     ",
"oooo ooooooooOoooooooooooo.@..@@..@     Xooo  oooo",
"oooo oooooooooooooooooooooo.@.@@@@@XXXXXoooo ooooo",
"oooo oooooooooooooooooooooo...@...oooooooooo Xoooo",
"oooo ooooooooooooooooooo@@@...@@@@oooooooooo Xoooo",
"oooo  ooooooooooooooooo@.@.....@@@oooooooooo Xoooo",
"ooooX ooooooooooooooo@@@.@.@......oooooooooo Xoooo",
"oooooX  oooooooooooo@ooo@..@......@ooooooooo ooooo",
"ooOoooX   ooooooooO@OOO.@@@..@..@.@ooooooooo ooooo",
"oooooooXX         @.   .@@.@@..@.Xo@oooooooo  oooo",
"oooooooooooooooooo.@ XX .@@...@.Xooo@oooOoooX   oo",
"ooooooooooooooooooo.@.@X@.@@@@.@ooooo@oOOOoo  X Xo",
"  ooooooooooooooooo o@.@o@....o.oooooo@oOooo oo   ",
"o   ooooooooooooooo oo@.@@@@@ooooooooo@ooooo ooooo",
"ooX   oooooooooooo  oo.@@o@ Oooooooooo@ooooo ooooo",
"ooXXX  ooooooooOOo oooo@oo@ Oooooooooo@@oooo Ooooo",
"oooooo  oooOOOO    ooooo.@@@@oooooooooo@oooo Ooooo",
"ooooooo o       oo  ooo.@.@.@.ooooooo.@@ooo  Ooooo",
"ooooooo   Xoooooooo oo@@.@@@@.@oooooo@.@@oo Oooooo",
"oooooooo XXoooooooo o@@@.@@@..@@oooo.oo@.@  Oooooo",
"oooOoooo oooooooooo @@ooo.@oo @@ooooooo..@oooooooo",
"oooooooo  ooooooooo@@ooooooooo @@oooooo  .oooooooo",
"ooooooooo ooooooo@@@ oooooooooo @       o oooooooo",
"ooooooooo ooooooo.oO ooooooooooo@@ Xooooo oooooooo",
"ooooooooo ooooooo@@O oooooooooooo@@Xoooo       ooo",
"oooooooo  oooooooo@O  Xooooooooo@.Xoooo  XoOOO   o",
"oooooOOO Xoooooooo@@   XXooooooo@@oooo  Xooooooo o",
"oOOOO    Xoooooooo@@ o   oooXXX@ oooo  ooooooooo  ",
"      X ooooooooooo@ ooo      @@ oooo ooooooooooo ",
"ooooooo  oooooooooo@ ooooooooo@o  ooo oooooooooooo",
"oooooooX ooooooooo @Xoooooooo@@oo      ooooooooooo",
"oooooooo   ooooo   .@ooooooo@..ooooooo  oooooooooo",
"ooooooooXX      @@@@@ooooooo@@@@@oooooo oooooooooo",
"ooooooooooooo@@@@@@o@oooooo@@oo@@@@@ooo Xooooooooo",
"ooOoooooooooooo ooooOOOoooooooooooooooo Xooooooooo",
"OOOoooooooooX   ooooooooooooooooooooooo Xooooooooo",
"ooooooooooooX ooooooooooooooooooooooooo oooooooooo",
"ooooooooooooX ooooooooooooooooooooooooo oooooooooo"
};
