/* XPM */
static char *effcd6e3ee7c4256e9b109acdb055178nkJJl1XT7bfuUnVm[] = {
/* columns rows colors chars-per-pixel */
"50 50 7 1 ",
"  c black",
". c #343434",
"X c #2B4B23",
"o c gray25",
"O c #5B5C5B",
"+ c #EC454B",
"@ c white",
/* pixels */
"ooooooooooooX oooooooooooooooooooooooo  oooooooooo",
"ooooooooooooX oooooooooooooooooooooooo ooooooooooo",
"ooooooooooooX oooooooooooooooooooooooo ooooooooooo",
"ooooooooooooX oooooooooooooooooooooooo ooooooooooo",
"oooooooooooo  oooooooooooooooooooooooo  XXXooooooo",
"oooooOOooooo ooo     OOOooooooooooooooX   oooooooo",
"oooooOoooooo     XXX   Oooooooooooooooooo oooooooo",
"ooooooooooo  XXXXooooo  OOoo@@@@@@ooOoooo  ooooooo",
"oooooooooo  Xoooooooooo   o@@@@@@@@oOoooo   oooooo",
"oooooooooX Xooooooooooooo @@.@@@@@@OOOooo o  ooooo",
"ooooooOO   oooooooooooooo @@.@@@@@@oOoooo oo ooooo",
"oOOOOO   XXooOoooooooooooo@@.@..@@.@Oooo  oo  oooo",
"       XooooOOOooooooooooo@.@++.@@+.ooo  Xooo     ",
"oooo ooooooooOoooooooooooo@.@@@@@.@@    Xooo  oooo",
"oooo ooooooooooooooooooooo.@..@@..@XXXXXoooo ooooo",
"oooo oooooooooooooooooooooo.@.@@@@@ooooooooo Xoooo",
"oooo ooooooooooooooooooo@@@...@...oooooooooo Xoooo",
"oooo  ooooooooooooooooo@.@....@@@@oooooooooo Xoooo",
"ooooX ooooooooooooooo@@@.@.@...@@@oooooooooo Xoooo",
"oooooX  oooooooooooo@ooo@..@......@ooooooooo ooooo",
"ooOoooX   ooooooooO@OOO.@@@..@..@.@ooooooooo ooooo",
"oooooooXX         @.   .@@.@@..@.Xo@oooooooo  oooo",
"oooooooooooooooooo.@ XX .@@...@.Xooo@oooOoooX   oo",
"ooooooooooooooooooo.@ooX@.@@@@.@ooooo@oOOOoo  X Xo",
"  ooooooooooooooooo @.@oo@....o.oooooo@oOooo oo   ",
"o   ooooooooooooooo o@.@o@@@@oooooooo@@ooooo ooooo",
"ooX   oooooooooooo  oo@.@o@ Ooooooooo@@ooooo ooooo",
"ooXXX  ooooooooOOo ooo.@@o@ Oooooooooo@ooooo Ooooo",
"oooooo  oooOOOO    oooo@.@@@@ooooooooo@ooooo Ooooo",
"ooooooo o       oo  ooo.@.@.@.oooooooo@oooo  Ooooo",
"ooooooo   Xoooooooo oo@@.@@@@.@ooooo.@@@ooo Oooooo",
"oooooooo XXoooooooo o@@@.@@@..@@oooo@.@@XX  Oooooo",
"oooOoooo oooooooooo @@ooo.@oo @@ooo.oo@.@ oooooooo",
"oooooooo  ooooooooo@@ooooooooo @@ooooo..@ oooooooo",
"ooooooooo ooooooo@@@ oooooooooo @       . oooooooo",
"ooooooooo ooooooo.oO ooooooooooo@@ Xooooo oooooooo",
"ooooooooo ooooooo@@O oooooooooooo@@Xoooo       ooo",
"oooooooo  oooooooo@O  Xooooooooo@.Xoooo  XoOOO   o",
"oooooOOO Xoooooooo@@   XXooooooo@@oooo  Xooooooo o",
"oOOOO    Xoooooooo@@ o   oooXXX@ oooo  ooooooooo  ",
"      X ooooooooooo@ ooo      @@ oooo ooooooooooo ",
"ooooooo  oooooooooo@ ooooooooo@o  ooo oooooooooooo",
"oooooooX ooooooooo @Xoooooooo@@oo      ooooooooooo",
"oooooooo   ooooo   .@ooooooo@..ooooooo  oooooooooo",
"ooooooooXX      @@@@@ooooooo@@@@@oooooo oooooooooo",
"ooooooooooooo@@@@@@o@oooooo@@oo@@@@@ooo Xooooooooo",
"ooOoooooooooooo ooooOOOoooooooooooooooo Xooooooooo",
"OOOoooooooooX   ooooooooooooooooooooooo Xooooooooo",
"ooooooooooooX ooooooooooooooooooooooooo oooooooooo",
"ooooooooooooX ooooooooooooooooooooooooo oooooooooo"
};
