/* XPM */
static char *d077fe11b44949e1b1c078b4e140ba27CeXfYEX9FmdaROrY[] = {
/* columns rows colors chars-per-pixel */
"50 50 7 1 ",
"  c black",
". c #343434",
"X c #2B4B23",
"o c gray25",
"O c #5B5C5B",
"+ c #EC454B",
"@ c white",
/* pixels */
"ooooooooooooX oooooooooooooooooooooooo  oooooooooo",
"ooooooooooooX oooooooooooooooooooooooo ooooooooooo",
"ooooooooooooX oooooooooooooooooooooooo ooooooooooo",
"ooooooooooooX oooooooooooooooooooooooo ooooooooooo",
"oooooooooooo  oooooooooooooooooooooooo  XXXooooooo",
"oooooOOooooo ooo     OOOooooooooooooooX   oooooooo",
"oooooOoooooo     XXX   Ooooo@@@@@@ooooooo oooooooo",
"ooooooooooo  XXXXooooo  OOo@@@@@@@@oOoooo  ooooooo",
"oooooooooo  Xoooooooooo   @@.@@@@@@oOoooo   oooooo",
"oooooooooX Xooooooooooooo @@.@@@@@@OOOooo o  ooooo",
"ooooooOO   oooooooooooooo @@.@..@@.@Ooooo oo ooooo",
"oOOOOO   XXooOoooooooooooo@.@++.@@+.Oooo  oo  oooo",
"       XooooOOOooooooooooo@.@@@@@.@@ooo  Xooo     ",
"oooo ooooooooOoooooooooooo.@..@@..@     Xooo  oooo",
"oooo oooooooooooooooooooooo.@.@@@@@XXXXXoooo ooooo",
"oooo ooooooooooooooooooo@@@...@...oooooooooo Xoooo",
"oooo oooooooooooooooooo@.@....@@@@oooooooooo Xoooo",
"oooo  ooooooooooooooo@@@.@.@...@@@oooooooooo Xoooo",
"ooooX oooooooooooooo@ooo@..@......@ooooooooo Xoooo",
"oooooX  ooooooooooo@ooo.@@@..@..@.@ooooooooo ooooo",
"ooOoooX   oooooooo@.OOO.@@.@@..@.Xo@oooooooo ooooo",
"oooooooXX         .@    .@@...@. Xoo@ooooooo  oooo",
"ooooooooooooooooooo.@XX @.@@@@.@Xoooo@ooOoooX   oo",
"ooooooooooooooooooo @.@XX@.... .ooooo.@OOOoo  X Xo",
"  ooooooooooooooooo o@.@o@@@@oooooooo@@oOooo oo   ",
"o   ooooooooooooooo oo@.@o@ Ooooooooo@@ooooo ooooo",
"ooX   oooooooooooo  oo.@@o@ Oooooooooo@ooooo ooooo",
"ooXXX  ooooooooOOo oooo@.@@@@ooooooooo@ooooo Ooooo",
"oooooo  oooOOOO    oooo.@.@.@.oooooooo@ooooo Ooooo",
"ooooooo o       oo  oo@@.@@@@.@ooooo.@@@ooo  Ooooo",
"ooooooo   Xoooooooo o@@@.@@@..@@oooo@.@@ooo Oooooo",
"oooooooo XXoooooooo @@ooo.@oo @@ooo.oo@.@X  Oooooo",
"oooOoooo oooooooooo@@oooooooo  @@ooooo..@ oooooooo",
"oooooooo  oooooooo@@ ooooooooo  @oooooo . oooooooo",
"ooooooooo oooooooo.@ oooooooooo @@      o oooooooo",
"ooooooooo oooooooo.O ooooooooooo@@ Xooooo oooooooo",
"ooooooooo oooooooo@O oooooooooo@.  Xoooo       ooo",
"oooooooo  oooooooo@@  Xoooooooo@@ Xoooo  XoOOO   o",
"oooooOOO Xoooooooo@@   XXoooooo@o oooo  Xooooooo o",
"oOOOO    Xoooooooo@@ o   oooXXX@ oooo  ooooooooo  ",
"      X ooooooooooo@ ooo      @@ oooo ooooooooooo ",
"ooooooo  oooooooooo@ ooooooooo@o  ooo oooooooooooo",
"oooooooX ooooooooo @Xoooooooo@@oo      ooooooooooo",
"oooooooo   ooooo   .@ooooooo@..ooooooo  oooooooooo",
"ooooooooXX      @@@@@ooooooo@@@@@oooooo oooooooooo",
"ooooooooooooo@@@@@@o@oooooo@@oo@@@@@ooo Xooooooooo",
"ooOoooooooooooo ooooOOOoooooooooooooooo Xooooooooo",
"OOOoooooooooX   ooooooooooooooooooooooo Xooooooooo",
"ooooooooooooX ooooooooooooooooooooooooo oooooooooo",
"ooooooooooooX ooooooooooooooooooooooooo oooooooooo"
};
