/* XPM */
static char *_dc64fa85ae44274f02194b6262fe67fkmFRFTXigCa5LkQG[] = {
/* columns rows colors chars-per-pixel */
"50 50 21 1 ",
"  c black",
". c #2D2B2B",
"X c gray22",
"o c #450929",
"O c #2B4B23",
"+ c gray25",
"@ c #5B5C5B",
"# c #912914",
"$ c #AB3118",
"% c #C5391C",
"& c #905B21",
"* c #B4732A",
"= c #E16A0C",
"- c #DF4120",
"; c #E9BC35",
": c #D49146",
"> c #EAC143",
", c #9D9D9D",
"< c gray71",
"1 c #E9C39B",
"2 c #DDDDDD",
/* pixels */
"++++++++++++O ++++++++++++++++++++++++  ++++++++++",
"++++++++++++O ++++++++++++++++++++++++ +++++++++++",
"++++++++++++O ++++++++++++++++++++++++ +++++++++++",
"++++++++++++O ++++++++++++++++++++++++ +++++++++++",
"++++++++++++  ++++++++++++++++++++++++  OOO+++++++",
"+++++@@+++++ +++     @@@++++++++++++++O   ++++++++",
"+++++@++++++     OOO   @+++++++++++++++++ ++++++++",
"+++++++++++  OOOO+++++  @@++++++++++@++++  +++++++",
"++++++++++  O++++++++++   ++++++++++@++++   ++++++",
"+++++++++O O+++++++++++++ @++++++++@@@+++ +  +++++",
"++++++@@   ++++++++++++++  @++++++++@++++ ++ +++++",
"+@@@@@   OO++@++++++++++++   +++++++@+++  ++  ++++",
"       O++++@@@+++++++.....+  +++++++++  O+++     ",
"++++ ++++++++@+++++++.11:::.+ +         O+++  ++++",
"++++ +++++++++++++++.1::::**.   ++OOOOOO++++ +++++",
"++++ +++++++++++++++.::::***.+  ++++++++++++ O++++",
"++++ +++++++++++++++.2*****2.++  +++++++++++ O++++",
"++++  +++++++++++++++.22222.++++ +++++++++++ O++++",
"++++O +++++++++++++++.2&&&2.++++ O++++++++++ O++++",
"+++++O  +++++++++++++.<&&&<.++++ O++++++++++ +++++",
"++@+++O   ++++++++@@.,X+++X,.+++ O++++++++++ +++++",
"+++++++OO           .,+++++,.++  O++++++++++  ++++",
"+++++++++++++++++++.,222222,,.  O+++++++@+++O   ++",
"++++++++++++++++++.22==%%==%22.++++++++@@@++  O O+",
"  +++++++++++++++.,==%%=====%%,.++++++++@+++ ++   ",
"+   +++++++++++++.2%%=%%=%%=%=2.++++++++++++ +++++",
"++O   ++++++++++.,#22=%%==%%22%,.+++++++++++ +++++",
"++OOO  ++++++++@.2%#,2222222,-%2.+++++++++++ @++++",
"++++++  +++@@@@ .2#;#%---===-%%2.+++++++++++ @++++",
"+++++++ +       .2#;;#----===%%2.++++++++++  @++++",
"+++++++   O+++++.2#;;#%---==-%%2.++++++++++ @+++++",
"++++++++ OO+++++.2#>;ooooooo--%2.+++++++OO  @+++++",
"+++@++++ +++++++.,$#;>ooooooo%%,.+++++++O ++++++++",
"++++++++  +++++++.,ooooooooooo,.+++++++   ++++++++",
"+++++++++ ++++++++.,,ooooooo,,.         + ++++++++",
"+++++++++ +++++++++..,,,,,,,..++++ O+++++ ++++++++",
"+++++++++ +++++++++@ .......+++++  O++++       +++",
"++++++++  +++++++++@  O++++++++++ O++++  O+@@@   +",
"+++++@@@ O+++++++++@   OO++++++++ ++++  O+++++++ +",
"+@@@@    O++++++++++ +   +++OOO  ++++  +++++++++  ",
"      O ++++++++++++ +++         ++++ +++++++++++ ",
"+++++++  ++++++++++  +++++++++++  +++ ++++++++++++",
"+++++++O +++++++++  O++++++++++++      +++++++++++",
"++++++++   +++++   O++++++++++++++++++  ++++++++++",
"++++++++OO       OO+++++++++@++++++++++ ++++++++++",
"+++++++++++++++ +++++++++++++++++++++++ O+++++++++",
"++@++++++++++++ ++++@@@++++++++++++++++ O+++++++++",
"@@@+++++++++O   +++++++++++++++++++++++ O+++++++++",
"++++++++++++O +++++++++++++++++++++++++ ++++++++++",
"++++++++++++O +++++++++++++++++++++++++ ++++++++++"
};
