/* XPM */
static char *hero[] = {
/* columns rows colors chars-per-pixel */
"50 50 9 1 ",
"  c #00",
"W c #ffffff",
"B c #000000",
"G c #373737",
"g c #777777",
"R c #f01e41",
"b c #1ea4f0",
"Y c #fccc53",
"O c #ff9728",
/* pixels */

"                                                  ",
"                      BBBB                        ",
"                      BBBB                        ",
"                    BBGGggBB                      ",
"                    BBGGggBB                      ",
"                  BBGGGGGGggBBBBBB                ",
"                  BBGGGGGGggBBBBBB                ",
"                BBbbGGGGGGGGggggggBB              ",
"                BBbbGGGGGGGGggggggBB              ",
"            BBBBGGbbBBBBGGGGGGGGGGggBB            ",
"            BBBBGGbbBBBBGGGGGGGGGGggBB            ",
"          BBbbGGbbBBGGGGBBGGGGGGGGggBB            ",
"          BBbbGGbbBBGGGGBBGGGGGGGGggBB            ",
"        BBbbbbGGBBGGggggGGBBGGGGGGGGBB            ",
"        BBbbbbGGBBGGggggGGBBGGGGGGGGBB            ",
"        BBbbbbBBggggggggggBBGGGGGGGGggBB          ",
"        BBbbbbBBggggggggggBBGGGGGGGGggBB          ",
"      WW  BBbbBBggRRggggRRGGBBGGGGGGGGBB          ",
"      WW  BBbbBBggRRggggRRGGBBGGGGGGGGBB          ",
"      YYYYBBbbBBggRRggggRRggGGBBGGGGGGggBB        ",
"      YYYYBBbbBBggRRggggRRggGGBBGGGGGGggBB        ",
"    YYYY  BBbbBBggggggggggggggGGBBGGGGggBB        ",
"    YYYY  BBbbBBggggggggggggggGGBBGGGGggBB        ",
"    OOOOOOBBbbbbBBggggggggggggBBGGGGGGggBB        ",
"    OOOOOOBBbbbbBBggggggggggggBBGGGGGGggBB        ",
"      OOOOBBGGbbGGBBggggggggBBGGGGGGGGGGBB        ",
"      OOOOBBGGbbGGBBggggggggBBGGGGGGGGGGBB        ",
"      RRRR  BBGGGGGGBBBBBBBBGGGGGGBBBBGGBB        ",
"      RRRR  BBGGGGGGBBBBBBBBGGGGGGBBBBGGBB        ",
"              BBbbbbGGGGGGGGGGGGBB    BBBB        ",
"              BBbbbbGGGGGGGGGGGGBB    BBBB        ",
"        BB      BBggGGGGGGGGggBB        BB        ",
"        BB      BBggGGGGGGGGggBB        BB        ",
"      BBggBB  BBggGGGGGGGGGGGGggBB                ",
"      BBggBB  BBggGGGGGGGGGGGGggBB                ",
"      BBGGBB  BBggGGGGGGGGGGGGggBB                ",
"      BBGGBB  BBggGGGGGGGGGGGGggBB                ",
"        BB    BBGGGGGGGGGGGGGGGGBB                ",
"        BB    BBGGGGGGGGGGGGGGGGBB                ",
"              BBGGGGGGGGGGGGGGggBB                ",
"              BBGGGGGGGGGGGGGGggBB                ",
"            BBGGGGGGGGGGGGGGGGGGggBB              ",
"            BBGGGGGGGGGGGGGGGGGGggBB              ",
"            BBGGGGGGGGGGGGGGGGGGGGBB              ",
"            BBGGGGGGGGGGGGGGGGGGGGBB              ",
"          BBGGGGGGGGGGGGGGGGGGGGGGGGBB            ",
"          BBGGGGGGGGGGGGGGGGGGGGGGGGBB            ",
"          BBGGGGGGGGGGGGGGGGGGGGGGGGBB            ",
"          BBGGBBBBBGGGGGGBBBBBBBBGGGBB            ",
"           BBBB   BBBBBBBB      BBBBBB            ",
"                                                  "
};