/* XPM */
static char *_e85d786a711450fddf7f413c52fe2e3FV9i6zfxX98PVaA7[] = {
/* columns rows colors chars-per-pixel */
"50 50 14 1 ",
"  c black",
". c #211122",
"X c #372338",
"o c #373737",
"O c #2B4B23",
"+ c gray25",
"@ c #5B5C5B",
"# c #69486B",
"$ c #777777",
"% c #F01E41",
"& c #FF9728",
"* c #FCCC53",
"= c #89688B",
"- c white",
/* pixels */
"++++++++++++O ++++++++++++++++++++++++  ++++++++++",
"++++++++++++O +++++++    +++++++++++++ +++++++++++",
"++++++++++++O +++++  ###=  +++++++++++ +++++++++++",
"++++++++++++O ++++ ######==   ++++++++ +++++++++++",
"++++++++++++  ++  #########===  ++++++  OOO+++++++",
"+++++@@+++++ +  ###############= +++++O   ++++++++",
"+++++@++++++  ..  ##############= +++++++ ++++++++",
"+++++++++++  .XXX.  #############= +@++++  +++++++",
"++++++++++  .XXXXX..   ###########= @++++   ++++++",
"+++++++++O  XXXXX.  ooo ##########= @@+++ +  +++++",
"++++++@@   XXXXX. o$$$$o ##########= ++++ ++ +++++",
"+@@@@@    XXXXX. o$$$$$$o #########= +++  ++  ++++",
"       O+ XXXX.  $$$$$$$o #########= ++  O+++     ",
"++++ +++ .XXX. $$$$$$$$$o ##########=   O+++  ++++",
"++++ +++ .XXX. $$$$$$$$$$o #########= OO++++ +++++",
"++++ -++ .XX. $$$%%$$$$%%$o #########= +++++ O++++",
"++++ +-+ .XX. $$$%%$$$$%%$$o ########= +++++ O++++",
"++++  **+ XX. $$$%%$$$$%%$$$o #######= +++++ O++++",
"++++O***+ XX. $$$%%$$$$%%$$$o #######= +++++ O++++",
"++++*** + XX. $$$$$$$$$$$$$$$o ####### +++++ +++++",
"++@&***   XXX. $$$$$$$$$$$$$$$ ######## ++++ +++++",
"+++&&&**O XXXX $$$$$$$$$$$$$$$ ######## ++++  ++++",
"++++&&&&&+ XXX. $$$$$$$$$$$$$ ######### @+++O   ++",
"+++++&&&&+ #XXX. $$$$$$$$$$$ ########## @@++  O O+",
"  +++&&&&+ ##XX.# $$$$$$$$$ ########### @+++ ++   ",
"+   +%%%%++  XXX.#  $$$$$$ #######  ### ++++ +++++",
"++O   %%++++ ##...##      ######  ++ ## ++++ +++++",
"++OOO  ++++++  ....############ +++++ # ++++ @++++",
"++++++  +++@@@  ...########### ++++++ # ++++ @++++",
"++++++  +       .=############ +++++++ ++++  @++++",
"+++++ =   O+++++ =##########= +++++++++++++ @+++++",
"+++++ == OO++++ =############= +++++++++OO  @+++++",
"+++@+ XX ++++++ ############## +++++++++O ++++++++",
"+++++  X  +++++ ##############  +++++++   ++++++++",
"++++++  + ++++ =##############=         + ++++++++",
"+++++++++ ++++ ###############= ++ O+++++ ++++++++",
"+++++++++ ++++ ###############= +  O++++       +++",
"++++++++  ++++ ###############= + O++++  O+@@@   +",
"+++++@@@ O+++ #################=  ++++  O+++++++ +",
"+@@@@    O++ ###################= +++  +++++++++  ",
"      O ++++ ###################= +++ +++++++++++ ",
"+++++++  +++ #################### +++ ++++++++++++",
"+++++++O ++ ######################     +++++++++++",
"++++++++   ######################## ++  ++++++++++",
"++++++++OO ######################## +++ ++++++++++",
"++++++++++ ######################## +++ O+++++++++",
"++@+++++++ ###   ########      #### +++ O+++++++++",
"@@@++++++++     +  ####  ++++++ ## ++++ O+++++++++",
"++++++++++++O +++++    +++++++++  +++++ ++++++++++",
"++++++++++++O +++++++++++++++++++++++++ ++++++++++"
};
