/* XPM */
static char *_95ef42f74ea4706e75e9813fe5fc80frUAcNBbBnLUvYqTM[] = {
/* columns rows colors chars-per-pixel */
"50 50 14 1 ",
"  c black",
". c #211122",
"X c #372338",
"o c #373737",
"O c #2B4B23",
"+ c gray25",
"@ c #5B5C5B",
"# c #69486B",
"$ c #777777",
"% c #F01E41",
"& c #FF9728",
"* c #FCCC53",
"= c #89688B",
"- c white",
/* pixels */
"++++++++++++O ++++++++++++++++++++++++  ++++++++++",
"++++++++++++O ++++++++++++++++++++++++ +++++++++++",
"++++++++++++O ++++++++++++++++++++++++ +++++++++++",
"++++++++++++O ++++++++++++++++++++++++ +++++++++++",
"++++++++++++  +++++++++++    +++++++++  OOO+++++++",
"+++++@@+++++ +++     @@  =###  +++++++O   ++++++++",
"+++++@++++++     OOO   ==###### +++++++++ ++++++++",
"+++++++++++  OOOO+  ===#########  ++@++++  +++++++",
"++++++++++  O++++ =###############  @++++   ++++++",
"+++++++++O O++++ =##############  .. @+++ +  +++++",
"++++++@@   ++++ =#############  .XXX. +++ ++ +++++",
"+@@@@@   OO++@ =###########   ..XXXXX. +  ++  ++++",
"       O++++@@ =########## ooo  .XXXXX   O+++     ",
"++++ ++++++++ =########## o$$$$o .XXXXX O+++  ++++",
"++++ ++++++++ =######### o$$$$$$o .XXXXX +++ +++++",
"++++ ++++++++ =######### o$$$$$$$  .XXXX +++ O++++",
"++++ +++++++ =########## o$$$$$$$$$ .XXX. ++ O++++",
"++++  ++++++ =######### o$$$$$$$$$$ .XXX. ++ O++++",
"++++O +++++ =######### o$%%$$$$%%$$$ .XX. ++-O++++",
"+++++O  +++ =######## o$$%%$$$$%%$$$ .XX +++ +++++",
"++@+++O   + =####### o$$$%%$$$$%%$$$ .XX +++ +++++",
"+++++++OO   =####### o$$$%%$$$$%%$$$ .XX ++-  ++++",
"+++++++++++ ####### o$$$$$$$$$$$$$$$ .XX +*+O   ++",
"++++++++++ ######## $$$$$$$$$$$$$$$ .XXX @*+  O O+",
"  ++++++++ ######## $$$$$$$$$$$$$$$ XXXX +** ++   ",
"+   ++++++ ######### $$$$$$$$$$$$$ .XXX  +&&&+++++",
"++O   ++++ ########## $$$$$$$$$$$ .XXX# ++&&&+++++",
"++OOO  +++ ########### $$$$$$$$$ #.XX## +&&&&@++++",
"++++++  ++ ###  ####### $$$$$$  #.XXX  ++%%%%@++++",
"+++++++ +  ##     ######      ##...## ++++%% @++++",
"+++++++    # +++++ ############....  ++++++ @+++++",
"++++++++ O # ++++++ ###########...  ++++OO  @+++++",
"+++@++++ ++ +++++++ ############=. +++++O   ++++++",
"++++++++  ++++++++++ =##########= +++++    = +++++",
"+++++++++ +++++++++ =############=      + == +++++",
"+++++++++ +++++++++ ############## O+++++ XX +++++",
"+++++++++ +++++++++ ############## O++++  X    +++",
"++++++++  ++++++++ =##############= +++  O  @@   +",
"+++++@@@ O++++++++ =############### ++  O+++++++ +",
"+@@@@    O++++++++ =############### +  +++++++++  ",
"      O +++++++++ =#################  +++++++++++ ",
"+++++++  +++++++ =################### ++++++++++++",
"+++++++O +++++++ ####################  +++++++++++",
"++++++++   ++++ ######################  ++++++++++",
"++++++++OO     ######################## ++++++++++",
"++++++++++++++ ######################## O+++++++++",
"++@+++++++++++ ####      ########   ### O+++++++++",
"@@@+++++++++O   ## ++++++  ####  +++    O+++++++++",
"++++++++++++O ++  +++++++++    ++++++++ ++++++++++",
"++++++++++++O +++++++++++++++++++++++++ ++++++++++"
};
