/* XPM */
static char *_66ce49f2c284781ed70a72289d2bcaaih8frIWlRHSxzcHy[] = {
/* columns rows colors chars-per-pixel */
"50 50 14 1 ",
"  c black",
". c #211122",
"X c #372338",
"o c #373737",
"O c #2B4B23",
"+ c gray25",
"@ c #5B5C5B",
"# c #69486B",
"$ c #777777",
"% c #F01E41",
"& c #FF9728",
"* c #FCCC53",
"= c #89688B",
"- c white",
/* pixels */
"++++++++++++O ++++++++++++++++++++++++  ++++++++++",
"++++++++++++O +++++++++++    +++++++++ +++++++++++",
"++++++++++++O +++++++++  =###  +++++++ +++++++++++",
"++++++++++++O ++++++   ==###### ++++++ +++++++++++",
"++++++++++++  ++++  ===#########  ++++  OOO+++++++",
"+++++@@+++++ +++  =###############  ++O   ++++++++",
"+++++@++++++     =##############  .. ++++ ++++++++",
"+++++++++++  OO =#############  .XXX. +++  +++++++",
"++++++++++  O+ =###########   ..XXXXX. ++   ++++++",
"+++++++++O O++ =########## ooo  .XXXXX ++ +  +++++",
"++++++@@   ++ =########## o$$$$o .XXXXX + ++ +++++",
"+@@@@@   OO++ =######### o$$$$$$o .XXXXX  ++  ++++",
"       O++++@ =######### o$$$$$$$  .XXXX O+++     ",
"++++ +++++++ =########## o$$$$$$$$$ .XXX. ++  ++++",
"++++ +++++++ =######### o$$$$$$$$$$ .XXX. ++ +++++",
"++++ ++++++ =######### o$%%$$$$%%$$$ .XX. ++-O++++",
"++++ ++++++ =######## o$$%%$$$$%%$$$ .XX. +- O++++",
"++++  +++++ =####### o$$$%%$$$$%%$$$ .XX +** O++++",
"++++O +++++ =####### o$$$%%$$$$%%$$$ .XX +***O++++",
"+++++O  +++ ####### o$$$$$$$$$$$$$$$ .XX ++***++++",
"++@+++O    ######## $$$$$$$$$$$$$$$ .XXX ++***&+++",
"+++++++OO  ######## $$$$$$$$$$$$$$$ XXXX +**&&&+++",
"++++++++++ ######### $$$$$$$$$$$$$ .XXX @&&&&&  ++",
"++++++++++ ########## $$$$$$$$$$$ .XXX# @&&&& O O+",
"  ++++++++ ########### $$$$$$$$$ #.XX## @&&&&++   ",
"+   ++++++ ###  ####### $$$$$$  #.XXX  ++%%%%+++++",
"++O   ++++ ## ++  ######      ##...## ++++%% +++++",
"++OOO  +++ # ++@@+ ############....  +++++++ @++++",
"++++++  ++ # @@     ###########...  ++++++++ @++++",
"+++++++ +       ++  ############=. +++++++   @++++",
"+++++++   O++++++++  =##########= +++++++  = +++++",
"++++++++ OO++++++++ =############= +++++O == +++++",
"+++@++++ ++++++++++ ############## +++++O XX +++++",
"++++++++  +++++++++ ############## ++++   X  +++++",
"+++++++++ ++++++++ =##############=     +   ++++++",
"+++++++++ ++++++++ =############### +++++ ++++++++",
"+++++++++ ++++++++ =############### ++++       +++",
"++++++++  ++++++++ =############### +++  O+@@@   +",
"+++++@@@ O+++++++ =################# +  O+++++++ +",
"+@@@@    O++++++ =###################  +++++++++  ",
"      O ++++++++ =################### +++++++++++ ",
"+++++++  +++++++ #################### ++++++++++++",
"+++++++O ++++++ ###################### +++++++++++",
"++++++++   +++ ######################## ++++++++++",
"++++++++OO     ######################## ++++++++++",
"++++++++++++++ ######################## O+++++++++",
"++@+++++++++++ ####      ########   ### O+++++++++",
"@@@+++++++++O   ## ++++++  ####  +++    O+++++++++",
"++++++++++++O ++  +++++++++    ++++++++ ++++++++++",
"++++++++++++O +++++++++++++++++++++++++ ++++++++++"
};
