/* XPM */
static char *_9a8edd300014c84ac3440b4a1698a94Mc9zwq922JHtoQsV[] = {
/* columns rows colors chars-per-pixel */
"50 50 4 1 ",
"  c #000100",
". c #193710",
"X c #264A1E",
"o c #AF401F",
/* pixels */
"                                                  ",
"ooX.oooooo XXX...XX   o   oo   o   ooXX..XX oooooo",
"oooXoooooo oooX.Xo                  oooXXoo oooooo",
"oooooooooo ooooXoo                  ooooooo oooooo",
"oooooooooo oooooooo   o        o   oooooooo oooooo",
"oooooooooo ooooooooo ooo oooo ooo ooooooooo oooooo",
"oooooooooo ooo    o   o        o   oooooooo oooooo",
"oooooooooX ooo                      oooooXo oooooo",
"oooooooXXX ooo                      oooooXX oooooo",
"ooooooXXX  oooo   o   o   oo   o   oooooX..  ooooo",
"                                                  ",
"oooooooooooooo                      oooooooooooooo",
"oooooooooooooo                      oooooooooooooo",
"ooooooooooooooo   o   o   oo   o   ooooooooooooooo",
"oooooooooooooooooooo oo   oo   o   ooooooooooooooo",
"oooooooooooooooooooo oo             oooooooooooooo",
"oooooooooooooooooooo oo             oooooooooooooo",
"oooooooooooooooooooo oo        o   ooooooooooooooo",
"ooooooooooooooooooXX Xoo oooo ooo oooooooooooooooo",
"ooooooooooooooooXX.  ..        o   ooXXXXXXXoooooo",
"                                                  ",
"oooooooooo oooooooooooo             ooooooo oooooo",
"oooooooooo oooooooooooo   oo   o   oooooooo oooooo",
"oooooooooo oooooooooooo   oo   o   oooooooo oooooo",
"oooooooooo oooooooooooo             ooooooo oooooo",
"oooooooooo oooooooooooo             ooooooo oooooo",
"oooooooooX oooooooooooo   oo   o   oooooooo oooooo",
"oooooooooX oooooooooooo   oo   o   oooooXXo oooooo",
"oooooooo.. oooooooooooo             oooo..X oooooo",
"ooooXXXX.  oooooooooooo             oooXX.  XXXooo",
"                                                  ",
"oooooooooooooooooooooooo oooo oo  oooooooooooooooo",
"ooooooooooooooooooooooo        o   ooooooooooooooo",
"ooooooooooooooooooooooo             oooooooooooooo",
"ooooooooooooooooooooooo             oooooooooooooo",
"ooooooooooooooooooooooo   oo   o   ooooooooooooooo",
"ooooooooooooooooooooooo   oo   o   ooooooooooooooo",
"ooooooooooooooooooooooo             oooooooooooooo",
"oooooooooooooXXXooooooo             oooooooXXXXooo",
"oooooooooooXXX.XXXooooo   oX   .   oooooXXX....XXo",
"                                                  ",
"oXXXXXXXooooooo ooooooo             oooooooooooooo",
"ooooooooooooooo ooooooo             oooooooooooooo",
"ooooooooooooooo ooooooo        o   ooooooooooooooo",
"ooooooooooooooo oooooooo oooo ooo oooooooooooooooo",
"ooooooooooooooo ooooooo        o   ooooooooooooooo",
"ooooooooooooooo ooooooo             oooooooooooooo",
"ooooooooooooooo ooooooo             oooooooooooooo",
"ooooooooooooooo ooooooo   oo   o   ooooooooooooooo",
"oXXXXoooooooooo oooXXXXXXXXXoooooooooooooooooooooo"
};
