/* XPM */
static char *da55638a75ba43b5e30759af9f54483aRfx18Ibwa0uT2gYk[] = {
/* columns rows colors chars-per-pixel */
"50 50 4 1 ",
"  c #000100",
". c #193710",
"X c #274A1E",
"o c #AF401F",
/* pixels */
"                                                  ",
"ooX.oooooo    .   X   oo   o   o   ooXX..XX oooooo",
"oooXoooooo                          oooXXoo oooooo",
"oooooooooo                          ooooooo oooooo",
"oooooooooo    o   o        o   o    ooooooo oooooo",
"oooooooooo o ooo ooo oooo ooo ooo ooooooooo oooooo",
"oooooooooo    o   o        o   o        ooo oooooo",
"oooooooooX                              oXo oooooo",
"oooooooXXX                              oXX oooooo",
"ooooooXXX     o   o   oo   o   o   oo   X..  ooooo",
"                                                  ",
"oooooooooo                              oooooooooo",
"oooooooooo                              oooooooooo",
"ooooooooooo   o   o   oo   o   o   oo   oooooooooo",
"oooooooooooooooooooo ooooooo   o   oo   oooooooooo",
"oooooooooooooooooooo oooooo             oooooooooo",
"oooooooooooooooooooo oooooo             oooooooooo",
"oooooooooooooooooooo ooooooo   o        oooooooooo",
"ooooooooooooooooooXX Xooooooo ooo oooo ooooooooooo",
"oooooooooo    o   .        o   o        XXXXoooooo",
"                                                  ",
"oooooooooo                              ooo oooooo",
"oooooooooo    o   o   oo   o   o   oo   ooo oooooo",
"oooooooooo    o   o   oo   o   o   oooooooo oooooo",
"oooooooooo                          ooooooo oooooo",
"oooooooooo                          ooooooo oooooo",
"oooooooooX    o   o   oo   o   o   oooooooo oooooo",
"oooooooooX    o   o   oo   o   o   oo   XXo oooooo",
"oooooooo..                              ..X oooooo",
"ooooXXXX.                               X.  XXXooo",
"                                                  ",
"ooooooooooooooooooooooooooooo oo  oooo ooooooooooo",
"oooooooooooooooooooooooooooo   o        oooooooooo",
"ooooooooooooooooooooooooooo             oooooooooo",
"ooooooooooooooooooooooooooo             oooooooooo",
"oooooooooooooooooooooooooooo   o   oo   oooooooooo",
"ooooooooooo   o   o   oo   o   o   oo   oooooooooo",
"oooooooooo                              oooooooooo",
"oooooooooo                              oooXXXXooo",
"ooooooooooo   .   o   oo   X   .   oo   XXX....XXo",
"                                                  ",
"oXXXXXXXoo                              oooooooooo",
"oooooooooo                              oooooooooo",
"oooooooooo    o   o        o   o        oooooooooo",
"oooooooooooo oo  ooo oooo ooo ooo oooooooooooooooo",
"oooooooooo    o   o        o   o    oooooooooooooo",
"oooooooooo                          oooooooooooooo",
"oooooooooo                          oooooooooooooo",
"ooooooooooo   o   o   oo   o   o   ooooooooooooooo",
"oXXXXoooooooooo oooXXXXXXXXXoooooooooooooooooooooo"
};
