/* XPM */
static char *b730e23ae45c4abcf8c218b60938f9814GvTv9DK6d7RQVud[] = {
/* columns rows colors chars-per-pixel */
"50 50 4 1 ",
"  c #000100",
". c #193710",
"X c #274A1E",
"o c #AF401F",
/* pixels */
"                                                  ",
"ooX.oooooo    .   X   oo   o   o   oo   .XX oooooo",
"oooXoooooo                              Xoo oooooo",
"oooooooooo                              ooo oooooo",
"oooooooooo    o   o        o   o        ooo oooooo",
"oooooooooo o ooo ooo oooo ooo ooo oooo oooo oooooo",
"oooooooooo    o   o        o   o        ooo oooooo",
"oooooooooX                              oXo oooooo",
"oooooooXXX                              oXX oooooo",
"ooooooXXX     o   o   oo   o   o   oo   X..  ooooo",
"                                                  ",
"oooooooooo                              oooooooooo",
"oooooooooo                              oooooooooo",
"ooooooooooo   o   o   oo   o   o   oo   oooooooooo",
"oooooooooooooooooooo ooooooo   o   oo   oooooooooo",
"oooooooooooooooooooo oooooo             oooooooooo",
"oooooooooooooooooooo oooooo             oooooooooo",
"oooooooooooooooooooo ooooooo   o        oooooooooo",
"ooooooooooooooooooXX Xooooooo ooo oooo ooooooooooo",
"ooooooooooooooooXX.  ..XXooo   o        XXXXoooooo",
"                                                  ",
"oooooooooo oooooooooooooooo             ooo oooooo",
"oooooooooo ooooooooooooooooo   o   oo   ooo oooooo",
"oooooooooo ooooooooooooo   o   o   oooooooo oooooo",
"oooooooooo oooooooooooo             ooooooo oooooo",
"oooooooooo oooooooooooo             ooooooo oooooo",
"oooooooooX ooooooooooooo   o   o   oooooooo oooooo",
"oooooooooX ooooooooooooo   o   oooooooooXXo oooooo",
"oooooooo.. oooooooooooo         oooooooo..X oooooo",
"ooooXXXX.  oooooooooooo         oooooooXX.  XXXooo",
"                                                  ",
"ooooooooooooooooooooooooo ooo oo ooooooooooooooooo",
"ooooooooooooooooooo        o   o ooooooooooooooooo",
"ooooooooooooooooooo              ooooooooooooooooo",
"ooooooooooooooooooo              ooooooooooooooooo",
"ooooooooooooooooooo   oo   o   o ooooooooooooooooo",
"ooooooooooooooooooo   oo   o   o ooooooooooooooooo",
"ooooooooooooooooooo              ooooooooooooooooo",
"oooooooooooooXXXooo              ooooooooooXXXXooo",
"oooooooooooXXX.XXXo   oo   X   .  ooooooXXX....XXo",
"                                                  ",
"oXXXXXXXooooooo ooo             oooooooooooooooooo",
"ooooooooooooooo ooo             oooooooooooooooooo",
"ooooooooooooooo ooo        o   ooooooooooooooooooo",
"ooooooooooooooo oooo oooo ooo oooooooooooooooooooo",
"ooooooooooooooo ooo        o   ooooooooooooooooooo",
"ooooooooooooooo ooo             oooooooooooooooooo",
"ooooooooooooooo ooo             oooooooooooooooooo",
"ooooooooooooooo ooo   oo   o   ooooooooooooooooooo",
"oXXXXoooooooooo oooXXXXXXXXXoooooooooooooooooooooo"
};
