/* XPM */
static char *_a97bcdd6f574aec8f72e43a412db433UV4GA6SwnbolqTpU[] = {
/* columns rows colors chars-per-pixel */
"50 50 4 1 ",
"  c #000100",
". c #193710",
"X c #274A1E",
"o c #AF401F",
/* pixels */
"                                                  ",
"ooX.oooooo XXX.   X   oo   o   o   ooXX..XX oooooo",
"oooXoooooo ooo                      oooXXoo oooooo",
"oooooooooo ooo                      ooooooo oooooo",
"oooooooooo oooo   o        o   o    ooooooo oooooo",
"oooooooooo ooooo ooo oooo ooo ooo ooooooooo oooooo",
"oooooooooo    o   o        o   o        ooo oooooo",
"oooooooooX                              oXo oooooo",
"oooooooXXX                              oXX oooooo",
"ooooooXXX     o   o   oo   o   o   oo   X..  ooooo",
"                                                  ",
"oooooooooo             oooX             oooooooooo",
"oooooooooo             oooo             oooooooooo",
"ooooooooooo   o   o   oooooo   o   oo   oooooooooo",
"oooooooooooooooooooo ooooooo   o   oo   oooooooooo",
"oooooooooooooooooooo oooooo             oooooooooo",
"oooooooooooooooooooo oooooo             oooooooooo",
"oooooooooooooooooooo ooooooo   o        oooooooooo",
"ooooooooooooooooooXX Xooooooo ooo oooo ooooooooooo",
"ooooooooooooooo   .        o   o        XXXXoooooo",
"                                                  ",
"oooooooooo ooo                          ooo oooooo",
"oooooooooo oooo   o   oo   o   o   oo   ooo oooooo",
"oooooooooo    o   o   oo   o   o   oo   ooo oooooo",
"oooooooooo                              ooo oooooo",
"oooooooooo                              ooo oooooo",
"oooooooooX    o   o   oo   o   o   oo   ooo oooooo",
"oooooooooX    o   o   oo   o   o   oooooXXo oooooo",
"oooooooo..                          oooo..X oooooo",
"ooooXXXX.                           oooXX.  XXXooo",
"                                                  ",
"oooooooooooo ooo ooo ooooooooooo ooooooooooooooooo",
"oooooooooo    o   o    ooooooooo ooooooooooooooooo",
"oooooooooo             ooooooooo ooooooooooooooooo",
"oooooooooo             ooooooooo ooooooooooooooooo",
"ooooooooooo   o   o   oooooooooo ooooooooooooooooo",
"ooooooooooo   o   o   oo   o   o   oo   oooooooooo",
"oooooooooo                              oooooooooo",
"oooooooooo                              oooXXXXooo",
"ooooooooooo   .   o   oo   X   .   oo   XXX....XXo",
"                                                  ",
"oXXXXXXXoo                              oooooooooo",
"oooooooooo                              oooooooooo",
"oooooooooo    o   o        o   o        oooooooooo",
"oooooooooooo oo  ooo oooo ooo ooo oooo ooooooooooo",
"oooooooooo    o   o        o   o        oooooooooo",
"oooooooooo                              oooooooooo",
"oooooooooo                              oooooooooo",
"ooooooooooo   o   o   oo   o   o   oo   oooooooooo",
"oXXXXoooooooooo oooXXXXXXXXXoooooooooooooooooooooo"
};
