/* XPM */
static char *f4159e59c2b94ccfc5aef4d0348720a6IrLQ1YLCC17ETXsc[] = {
/* columns rows colors chars-per-pixel */
"50 50 4 1 ",
"  c #000100",
". c #193710",
"X c #274A1E",
"o c #AF401F",
/* pixels */
"                                                  ",
"ooX.oooooo XXX.   X   oooooo   o   oo   .XX oooooo",
"oooXoooooo ooo         oooo             Xoo oooooo",
"oooooooooo ooo         oooo             ooo oooooo",
"oooooooooo oooo   o    ooooo   o        ooo oooooo",
"oooooooooo ooooo ooo oooooooo ooo oooo oooo oooooo",
"oooooooooo    o   o    ooooo   o        ooo oooooo",
"oooooooooX             oooo             oXo oooooo",
"oooooooXXX             oooo             oXX oooooo",
"ooooooXXX     o   o   oooooo   o   oo   X..  ooooo",
"                                                  ",
"oooooooooo             oooX             oooooooooo",
"oooooooooo             oooo             oooooooooo",
"ooooooooooo   o   o   oooooo   o   oo   oooooooooo",
"ooooooooooo   o   o   oooooo   o   oo   oooooooooo",
"oooooooooo             oooo             oooooooooo",
"oooooooooo             oooo             oooooooooo",
"oooooooooo    o   o    ooooo   o        oooooooooo",
"oooooooooooo ooo oXX Xooooooo ooo oooo ooooooooooo",
"oooooooooo    o   .    XXooo   o        XXXXoooooo",
"                                                  ",
"oooooooooo             oooo             ooo oooooo",
"oooooooooo    o   o   oooooo   o   oo   ooo oooooo",
"oooooooooo    o   o   oo   o   o   oo   ooo oooooo",
"oooooooooo                              ooo oooooo",
"oooooooooo                              ooo oooooo",
"oooooooooX    o   o   oo   o   o   oo   ooo oooooo",
"oooooooooX    o   o   oo   o   o   oo   XXo oooooo",
"oooooooo..                              ..X oooooo",
"ooooXXXX.                               X.  XXXooo",
"                                                  ",
"oooooooooooo ooo ooo oooo ooo oo  oooo ooooooooooo",
"oooooooooo    o   o        o   o        oooooooooo",
"oooooooooo                              oooooooooo",
"oooooooooo                              oooooooooo",
"ooooooooooo   o   o   oo   o   o   oo   oooooooooo",
"oooooooooooooooooooooooooooo   o   oo   oooooooooo",
"ooooooooooooooooooooooooooo             oooooooooo",
"oooooooooooooXXXooooooooooo             oooXXXXooo",
"oooooooooooXXX.XXXoooooooooX   .   oo   XXX....XXo",
"                                                  ",
"oXXXXXXXooooooo ooooooooooo             oooooooooo",
"ooooooooooooooo ooooooooooo             oooooooooo",
"ooooooooooooooo oooooooooooo   o        oooooooooo",
"ooooooooooooooo ooooooooooooo ooo oooo ooooooooooo",
"ooooooooooooooo oooooooooooo   o        oooooooooo",
"ooooooooooooooo ooooooooooo             oooooooooo",
"ooooooooooooooo ooooooooooo             oooooooooo",
"ooooooooooooooo oooooooooooo   o   oo   oooooooooo",
"oXXXXoooooooooo oooXXXXXXXXXoooooooooooooooooooooo"
};
