/* XPM */
static char *af83005c5077465dc0c96d94f5c57e9bI1tAP3aeS9Xgsv8D[] = {
/* columns rows colors chars-per-pixel */
"50 50 4 1 ",
"  c #000100",
". c #193710",
"X c #274A1E",
"o c #AF401F",
/* pixels */
"                                                  ",
"ooX.oooooo XXX.   X   oo   o   o   oo   .XX oooooo",
"oooXoooooo ooo                          Xoo oooooo",
"oooooooooo ooo                          ooo oooooo",
"oooooooooo oooo   o        o   o        ooo oooooo",
"oooooooooo ooooo ooo oooo ooo ooo oooo oooo oooooo",
"oooooooooo    o   o        o   o        ooo oooooo",
"oooooooooX                              oXo oooooo",
"oooooooXXX                              oXX oooooo",
"ooooooXXX     o   o   oo   o   o   oo   X..  ooooo",
"                                                  ",
"oooooooooo                              oooooooooo",
"oooooooooo                              oooooooooo",
"ooooooooooo   o   o   oo   o   o   oo   oooooooooo",
"ooooooooooo   o   o   oooooooooooooooooooooooooooo",
"oooooooooo             ooooooooooooooooooooooooooo",
"oooooooooo             ooooooooooooooooooooooooooo",
"oooooooooo    o   o    ooooooooooooooooooooooooooo",
"oooooooooooo ooo oXX Xoooooooooooooooooooooooooooo",
"oooooooooo    o   .        o   o    oXXXXXXXoooooo",
"                                                  ",
"oooooooooo                          ooooooo oooooo",
"oooooooooo    o   o   oo   o   o   oooooooo oooooo",
"oooooooooo    o   o   oo   o   o   oo   ooo oooooo",
"oooooooooo                              ooo oooooo",
"oooooooooo                              ooo oooooo",
"oooooooooX    o   o   oo   o   o   oo   ooo oooooo",
"oooooooooX    o   o   oo   o   o   oo   XXo oooooo",
"oooooooo..                              ..X oooooo",
"ooooXXXX.                               X.  XXXooo",
"                                                  ",
"oooooooooooo ooo ooo oooooooo oo  oooo ooooooooooo",
"oooooooooo    o   o    ooooo   o        oooooooooo",
"oooooooooo             oooo             oooooooooo",
"oooooooooo             oooo             oooooooooo",
"ooooooooooo   o   o   oooooo   o   oo   oooooooooo",
"ooooooooooo   o   o   oo   o   o   oo   oooooooooo",
"oooooooooo                              oooooooooo",
"oooooooooo                              oooXXXXooo",
"ooooooooooo   .   o   oo   X   .   oo   XXX....XXo",
"                                                  ",
"oXXXXXXXoo                              oooooooooo",
"oooooooooo                              oooooooooo",
"oooooooooo    o   o        o   o        oooooooooo",
"ooooooooooooooo  ooo oooo ooo ooo oooooooooooooooo",
"ooooooooooooooo   o        o   o    oooooooooooooo",
"oooooooooooooo                      oooooooooooooo",
"oooooooooooooo                      oooooooooooooo",
"ooooooooooooooo   o   oo   o   o   ooooooooooooooo",
"oXXXXoooooooooo oooXXXXXXXXXoooooooooooooooooooooo"
};
