/* XPM */
static char *_f1dae8333664fa3f0c83bd1c7b3e8a9c2lXYUJX4g2VMyzc[] = {
/* columns rows colors chars-per-pixel */
"50 50 7 1 ",
"  c black",
". c #343434",
"X c #2B4B23",
"o c gray25",
"O c #5B5C5B",
"+ c #EC454B",
"@ c white",
/* pixels */
"ooooooooooooX oooooooooooooooooooooooo  oooooooooo",
"ooooooooooooX oooooooooooooooooooooooo ooooooooooo",
"ooooooooooooX oooooooooooooooooooooooo ooooooooooo",
"ooooooooooooX oooooooooooooooooooooooo ooooooooooo",
"oooooooooooo  oooooooooooooooooooooooo  XXXooooooo",
"oooooOOooooo ooo     OOOooooooooooooooX   oooooooo",
"oooooOoooooo     XXX   Oooooooooooooooooo oooooooo",
"ooooooooooo  X@@@@@@oo  OOooooooooooOoooo  ooooooo",
"oooooooooo  X@@@@@@@@oo   ooooooooooOoooo   oooooo",
"oooooooooX Xo@@@@@@.@@ooo OooooooooOOOooo o  ooooo",
"ooooooOO   oo@@@@@@.@@ooo  OooooooooOoooo oo ooooo",
"oOOOOO   XXo@.@@..@.@@oooo   oooooooOooo  oo  oooo",
"       Xoooo.+@@.++@.@oooooo  ooooooooo  Xooo     ",
"oooo ooooooo@@.@@@@@.@ooooooo o         Xooo  oooo",
"oooo oooooooo@..@@..@.ooooooo   ooXXXXXXoooo ooooo",
"oooo oooooooo@@@@@.@.ooooooooo  oooooooooooo Xoooo",
"oooo ooooooooo...@...@@@ooooooo  ooooooooooo Xoooo",
"oooo  oooooooo@@@@....@.@ooooooo ooooooooooo Xoooo",
"ooooX oooooooo@@@...@.@.@@@ooooo Xoooooooooo Xoooo",
"oooooX  ooooo@......@..@ooo@oooo Xoooooooooo ooooo",
"ooOoooX   ooo@.@..@..@@@.ooo@ooo Xoooooooooo ooooo",
"oooooooXX   @  .@..@@.@@.OOO.@o  Xoooooooooo  oooo",
"ooooooooooo@oooo.@...@@.    @.  XoooooooOoooX   oo",
"oooooooooo@ooooo@.@@@@.@X O@.  ooooooooOOOoo  X Xo",
"  ooooooo@oooooo.o....@oo@.@OoooooooooooOooo oo   ",
"o   ooooo@@oooooooo@@@@o@.@ Oooooooooooooooo ooooo",
"ooX   ooo@@ooooooo  o@o@.@o Oooooooooooooooo ooooo",
"ooXXX  oo@oooooOOo oo@o@@.o Oooooooooooooooo Ooooo",
"oooooo  o@oOOOO    @@@@.@oo Oooooooooooooooo Ooooo",
"ooooooo o@      oo.@.@.@.oo  oooooooooooooo  Ooooo",
"ooooooo @@@.ooooo@.@@@@.@@oo  ooooooooooooo Oooooo",
"oooooooo@@.@oooo@@..@@@.@@@oo ooooooooooXX  Oooooo",
"oooOooo@.@oo.ooo@@o o@.ooo@@o  oooooooooX oooooooo",
"ooooooo@..ooooo@@ooo oooooo@@o  ooooooo   oooooooo",
"ooooooo.o ooooo@oooo ooooooo@@@         o oooooooo",
"ooooooooo oooo@@oooO ooooooooo.ooo Xooooo oooooooo",
"ooooooooo ooo@@ooooO oooooooo@@oo  Xoooo       ooo",
"oooooooo  oooo.@oooO  Xoooooo@ooo Xoooo  XoOOO   o",
"oooooOOO Xoooo@@oooO   XXooo@@ooo oooo  Xooooooo o",
"oOOOO    Xoooooo@ooo o   ooo@@X  oooo  ooooooooo  ",
"      X oooooooo@@oo ooo    @    oooo ooooooooooo ",
"ooooooo  oooooooo@o  ooooooo@ooo  ooo oooooooooooo",
"oooooooX oooooooo@@ Xooooooo@oooo      ooooooooooo",
"oooooooo   ooooo ..@ooooooo@.ooooooooo  oooooooooo",
"ooooooooXX     @@@@@ooooooo@@@@@ooooooo oooooooooo",
"oooooooooooo@@@@@oo@@oooooo@o@@@@@@oooo Xooooooooo",
"ooOoooooooooooo ooooOOOoooooooooooooooo Xooooooooo",
"OOOoooooooooX   ooooooooooooooooooooooo Xooooooooo",
"ooooooooooooX ooooooooooooooooooooooooo oooooooooo",
"ooooooooooooX ooooooooooooooooooooooooo oooooooooo"
};
