/* XPM */
static char *_4fccef808d342ede310edf86f4ac4b82AQrk7KvrmQFwvIC[] = {
/* columns rows colors chars-per-pixel */
"50 50 7 1 ",
"  c black",
". c #343434",
"X c #2B4B23",
"o c gray25",
"O c #5B5C5B",
"+ c #EC454B",
"@ c white",
/* pixels */
"ooooooooooooX oooooooooooooooooooooooo  oooooooooo",
"ooooooooooooX oooooooooooooooooooooooo ooooooooooo",
"ooooooooooooX oooooooooooooooooooooooo ooooooooooo",
"ooooooooooooX oooooooooooooooooooooooo ooooooooooo",
"oooooooooooo  oooooooooooooooooooooooo  XXXooooooo",
"oooooOOooooo ooo     OOOooooooooooooooX   oooooooo",
"oooooOoooooo     XXX   Oooooooooooooooooo oooooooo",
"ooooooooooo  XXXXooooo  OOooooooooooOoooo  ooooooo",
"oooooooooo  Xo@@@@@@ooo   ooooooooooOoooo   oooooo",
"oooooooooX Xo@@@@@@@@oooo OooooooooOOOooo o  ooooo",
"ooooooOO   oo@@@@@@.@@ooo  OooooooooOoooo oo ooooo",
"oOOOOO   XXoo@@@@@@.@@oooo   oooooooOooo  oo  oooo",
"       Xoooo@.@@..@.@@oooooo  ooooooooo  Xooo     ",
"oooo ooooooo.+@@.++@.@ooooooo o         Xooo  oooo",
"oooo ooooooo@@.@@@@@.@ooooooo   ooXXXXXXoooo ooooo",
"oooo oooooooo@..@@..@.oooooooo  oooooooooooo Xoooo",
"oooo oooooooo@@@@@.@.oooooooooo  ooooooooooo Xoooo",
"oooo  oooooooo...@....oooooooooo ooooooooooo Xoooo",
"ooooX oooooooo@@@@...@@@oooooooo Xoooooooooo Xoooo",
"oooooX  oooooo@@@.....@.@ooooooo Xoooooooooo ooooo",
"ooOoooX   oooo......@.@.@@@ooooo Xoooooooooo ooooo",
"oooooooXX    @......@..@OOO@ooo  Xoooooooooo  oooo",
"ooooooooooooo@.@..@..@@@.   @o  XoooooooOoooX   oo",
"oooooooooooo@oo.@..@@.@@. OO.@ ooooooooOOOoo  X Xo",
"  ooooooooo@oooo.@...@@.o  O@.ooooooooooOooo oo   ",
"o   oooooo@ooooo@.@@@@.@o@.@.ooooooooooooooo ooooo",
"ooX   ooo@oooooo.o....@o@.@ Oooooooooooooooo ooooo",
"ooXXX  oo@oooooOOo @@@@@.@o Oooooooooooooooo Ooooo",
"oooooo  o@oOOOO    oo@o@@.o Oooooooooooooooo Ooooo",
"ooooooo @@      oo  o@ooooo  oooooooooooooo  Ooooo",
"ooooooo @ Xoooooooo@@@@.oooo  ooooooooooooo Oooooo",
"oooooooo@@.ooooooo.@.@.@.oooo ooooooooooXX  Oooooo",
"oooOooo@@.@oooooo@.@@@@.@@ooo  oooooooooX oooooooo",
"oooooo@.@ o.oooo@@..@@@.@@@ooo  ooooooo   oooooooo",
"oooooo@.. oooooo@@oo @.ooo@@@oo         o oooooooo",
"oooooo.oo ooooo@@ooO ooooooo@@oooo Xooooo oooooooo",
"ooooooooo oooo@@oooO oooooooo.@oo  Xoooo       ooo",
"oooooooo  oooo.ooooO  Xoooooo@@oo Xoooo  XoOOO   o",
"oooooOOO Xoooo@@oooO   XXoooo@ooo oooo  Xooooooo o",
"oOOOO    Xoooooo@ooo o   ooo@@X  oooo  ooooooooo  ",
"      X oooooooo@@oo ooo    @    oooo ooooooooooo ",
"ooooooo  oooooooo@o  ooooooo@ooo  ooo oooooooooooo",
"oooooooX oooooooo@@ Xooooooo@oooo      ooooooooooo",
"oooooooo   ooooo ..@ooooooo@.ooooooooo  oooooooooo",
"ooooooooXX     @@@@@ooooooo@@@@@ooooooo oooooooooo",
"oooooooooooo@@@@@oo@@oooooo@o@@@@@@oooo Xooooooooo",
"ooOoooooooooooo ooooOOOoooooooooooooooo Xooooooooo",
"OOOoooooooooX   ooooooooooooooooooooooo Xooooooooo",
"ooooooooooooX ooooooooooooooooooooooooo oooooooooo",
"ooooooooooooX ooooooooooooooooooooooooo oooooooooo"
};
