/* XPM */
static char *a3b4fbad25f14de8e01e577985e3650aQotwo9K1i3Flpum5[] = {
/* columns rows colors chars-per-pixel */
"50 50 14 1 ",
"  c black",
". c #211122",
"X c #372338",
"o c #373737",
"O c #2B4B23",
"+ c gray25",
"@ c #5B5C5B",
"# c #69486B",
"$ c #777777",
"% c #F01E41",
"& c #FF9728",
"* c #FCCC53",
"= c #89688B",
"- c white",
/* pixels */
"++++++++++++O ++++++++++++++++++++++++  ++++++++++",
"++++++++++++O ++++++++++++++++++++++++ +++++++++++",
"++++++++++++O ++++++++++++++++++++++++ +++++++++++",
"++++++++++++O +++++++    +++++++++++++ +++++++++++",
"++++++++++++  +++++  ###=  +++++++++++  OOO+++++++",
"+++++@@+++++ +++   ######==   ++++++++O   ++++++++",
"+++++@++++++      #########===  +++++++++ ++++++++",
"+++++++++++  O  ###############= +++@++++  +++++++",
"++++++++++  O ..  ##############= ++@++++   ++++++",
"+++++++++O O .XXX.  #############= @@@+++ +  +++++",
"++++++@@    .XXXXX..   ###########= @++++ ++ +++++",
"+@@@@@   OO XXXXX.  ooo ##########= @+++  ++  ++++",
"       O++ XXXXX. o$$$$o ##########= ++  O+++     ",
"++++ ++++ XXXXX. o$$$$$$o #########=    O+++  ++++",
"++++ ++++ XXXX.  $$$$$$$o #########= OOO++++ +++++",
"++++ +++ .XXX. $$$$$$$$$o ##########= ++++++ O++++",
"++++ +++ .XXX. $$$$$$$$$$o #########= ++++++ O++++",
"++++  ++ .XX. $$$%%$$$$%%$o #########= +++++ O++++",
"++++O -+ .XX. $$$%%$$$$%%$$o ########= +++++ O++++",
"+++++*- + XX. $$$%%$$$$%%$$$o #######= +++++ +++++",
"++@++**   XX. $$$%%$$$$%%$$$o #######= +++++ +++++",
"+++++**** XX. $$$$$$$$$$$$$$$o ####### +++++  ++++",
"++++++*** XXX. $$$$$$$$$$$$$$$ ######## @+++O   ++",
"+++++++*& XXXX $$$$$$$$$$$$$$$ ######## @@++  O O+",
"  ++++&&&+ XXX. $$$$$$$$$$$$$ ######### @+++ ++   ",
"+   +&&&&+ #XXX. $$$$$$$$$$$ ########## ++++ +++++",
"++O  &&&&+ ##XX.# $$$$$$$$$ ########### ++++ +++++",
"++OOO%%%%++  XXX.#  $$$$$$ #######  ### ++++ @++++",
"++++++%%+++@ ##...##      ######  ++ ## ++++ @++++",
"+++++++ +      ....############ ++++ # ++++  @++++",
"+++++++   O+++  ...########### +++++  +++++ @+++++",
"++++++   OO++++ .=############ +++++++++OO  @+++++",
"+++@+ =  +++++++ =##########=  +++++++++O ++++++++",
"+++++ ==  +++++ =############=  +++++++   ++++++++",
"+++++ oo  +++++ ##############          + ++++++++",
"+++++  o  +++++ ############## +++ O+++++ ++++++++",
"++++++  + ++++ =##############= +  O++++       +++",
"++++++++  ++++ ###############= + O++++  O+@@@   +",
"+++++@@@ O++++ ###############= + ++++  O+++++++ +",
"+@@@@    O+++ #################= ++++  +++++++++  ",
"      O ++++ ###################= +++ +++++++++++ ",
"+++++++  +++ #################### +++ ++++++++++++",
"+++++++O ++ ######################     +++++++++++",
"++++++++   ######################## ++  ++++++++++",
"++++++++OO ######################## +++ ++++++++++",
"++++++++++ ######################## +++ O+++++++++",
"++@+++++++ ###   ########      #### +++ O+++++++++",
"@@@++++++++     +  ####  ++++++ ## ++++ O+++++++++",
"++++++++++++O +++++    +++++++++  +++++ ++++++++++",
"++++++++++++O +++++++++++++++++++++++++ ++++++++++"
};
