/* XPM */
static char *ec42d573b34d4fc5aa5ed9bbb9268ca3BxQXLwrTw9wUOXtn[] = {
/* columns rows colors chars-per-pixel */
"50 50 14 1 ",
"  c black",
". c #211122",
"X c #372338",
"o c #373737",
"O c #2B4B23",
"+ c gray25",
"@ c #5B5C5B",
"# c #69486B",
"$ c #777777",
"% c #F01E41",
"& c #FF9728",
"* c #FCCC53",
"= c #89688B",
"- c white",
/* pixels */
"++++++++++++O ++++++++++++++++++++++++  ++++++++++",
"++++++++++++O ++++++++++++++++++++++++ +++++++++++",
"++++++++++++O ++++++++++++++++++++++++ +++++++++++",
"++++++++++++O ++++++++++++++++++++++++ +++++++++++",
"++++++++++++  +++++++    +++++++++++++  OOO+++++++",
"+++++@@+++++ +++     ###=  +++++++++++O   ++++++++",
"+++++@++++++     O ######==   +++++++++++ ++++++++",
"+++++++++++  OOO  #########===  ++++@++++  +++++++",
"++++++++++  O+  ###############= +++@++++   ++++++",
"+++++++++O O+ ..  ##############= +@@@+++ +  +++++",
"++++++@@   + .XXX.  #############= +@++++ ++ +++++",
"+@@@@@   OO .XXXXX..   ###########= @+++  ++  ++++",
"       O+++ XXXXX.  ooo ##########= +++  O+++     ",
"++++ +++++ XXXXX. o$$$$o ##########=    O+++  ++++",
"++++ ++++ XXXXX. o$$$$$$o #########= OOO++++ +++++",
"++++ ++++ XXXX.  $$$$$$$o #########= +++++++ O++++",
"++++ +++ .XXX. $$$$$$$$$o ##########= ++++++ O++++",
"++++  ++ .XXX. $$$$$$$$$$o #########= ++++++ O++++",
"++++O-++ .XX. $$$%%$$$$%%$o #########= +++++ O++++",
"+++++O  + XX. $$$%%$$$$%%$$o ########= +++++ +++++",
"++@+++O   XX. $$$%%$$$$%%$$$o #######= +++++ +++++",
"++++++-OO XX. $$$%%$$$$%%$$$o #######= +++++  ++++",
"+++++++*+ XX. $$$$$$$$$$$$$$$o ####### +@+++O   ++",
"+++++++*+ XXX. $$$$$$$$$$$$$$$ ######## @@++  O O+",
"  ++++**+ XXXX $$$$$$$$$$$$$$$ ######## @+++ ++   ",
"+   +&&&+  XXX. $$$$$$$$$$$$$ ######### ++++ +++++",
"++O  &&&++ #XXX. $$$$$$$$$$$ ########## ++++ +++++",
"++OOO&&&&+ ##XX.# $$$$$$$$$ ########### ++++ @++++",
"+++++%%%%++  XXX.#  $$$$$$ #######  ### ++++ @++++",
"++++++%%+    ##...##      ######  ++ ## +++  @++++",
"+++++++   O++  ....############ +++++ # +++ @+++++",
"++++++++ OO+++  ...########### ++++++ # OO  @+++++",
"+++@++   ++++++ .=############ +++++++ +O ++++++++",
"+++++ =   ++++++ =##########=   +++++++   ++++++++",
"+++++ ==  +++++ =############=          + ++++++++",
"+++++ XX  +++++ ############## +++ O+++++ ++++++++",
"+++++  X  +++++ ############## ++  O++++       +++",
"++++++    ++++ =##############= + O++++  O+@@@   +",
"+++++@@@ O++++ ###############= + ++++  O+++++++ +",
"+@@@@    O++++ ###############=  ++++  +++++++++  ",
"      O +++++ #################= ++++ +++++++++++ ",
"+++++++  +++ ###################= +++ ++++++++++++",
"+++++++O +++ ####################      +++++++++++",
"++++++++    ###################### +++  ++++++++++",
"++++++++OO ######################## +++ ++++++++++",
"++++++++++ ######################## +++ O+++++++++",
"++@+++++++ ###   ########      #### +++ O+++++++++",
"@@@++++++++     +  ####  ++++++ ## ++++ O+++++++++",
"++++++++++++O +++++    +++++++++  +++++ ++++++++++",
"++++++++++++O +++++++++++++++++++++++++ ++++++++++"
};
