/* XPM */
static char *_8fae3e60b6a4cb7844acec16273cb947Bzq0kLZUgoo7vzR[] = {
/* columns rows colors chars-per-pixel */
"50 50 14 1 ",
"  c black",
". c #211122",
"X c #372338",
"o c #373737",
"O c #2B4B23",
"+ c gray25",
"@ c #5B5C5B",
"# c #69486B",
"$ c #777777",
"% c #F01E41",
"& c #FF9728",
"* c #FCCC53",
"= c #89688B",
"- c white",
/* pixels */
"++++++++++++O ++++++++++++++++++++++++  ++++++++++",
"++++++++++++O ++++++++++++++++++++++++ +++++++++++",
"++++++++++++O ++++++++++++++++++++++++ +++++++++++",
"++++++++++++O +++++++++++    +++++++++ +++++++++++",
"++++++++++++  +++++++++  =###  +++++++  OOO+++++++",
"+++++@@+++++ +++       ==###### ++++++O   ++++++++",
"+++++@++++++     O  ===#########  +++++++ ++++++++",
"+++++++++++  OOOO =###############  @++++  +++++++",
"++++++++++  O+++ =##############  .. ++++   ++++++",
"+++++++++O O+++ =#############  .XXX. +++ +  +++++",
"++++++@@   +++ =###########   ..XXXXX. ++ ++ +++++",
"+@@@@@   OO++@ =########## ooo  .XXXXX +  ++  ++++",
"       O++++@ =########## o$$$$o .XXXXX  O+++     ",
"++++ ++++++++ =######### o$$$$$$o .XXXXX +++  ++++",
"++++ ++++++++ =######### o$$$$$$$  .XXXX +++ +++++",
"++++ +++++++ =########## o$$$$$$$$$ .XXX. ++ O++++",
"++++ +++++++ =######### o$$$$$$$$$$ .XXX. ++ O++++",
"++++  +++++ =######### o$%%$$$$%%$$$ .XX. ++ O++++",
"++++O +++++ =######## o$$%%$$$$%%$$$ .XX. +- O++++",
"+++++O  +++ =####### o$$$%%$$$$%%$$$ .XX ++-*+++++",
"++@+++O   + =####### o$$$%%$$$$%%$$$ .XX ++**+++++",
"+++++++OO   ####### o$$$$$$$$$$$$$$$ .XX **** ++++",
"++++++++++ ######## $$$$$$$$$$$$$$$ .XXX ***O   ++",
"++++++++++ ######## $$$$$$$$$$$$$$$ XXXX &*+  O O+",
"  ++++++++ ######### $$$$$$$$$$$$$ .XXX @&&& ++   ",
"+   ++++++ ########## $$$$$$$$$$$ .XXX# +&&&&+++++",
"++O   ++++ ########### $$$$$$$$$ #.XX## +&&&&+++++",
"++OOO  +++ ###  ####### $$$$$$  #.XXX  ++%%%%@++++",
"++++++  ++ ## @   ######      ##...## ++++%% @++++",
"+++++++ +   #   ++ ############....  ++++++  @++++",
"+++++++   O+  +++++ ###########...  +++++++ @+++++",
"++++++++ OO++++++++ ############=. +++++OO  @+++++",
"+++@++++ ++++++++++  =##########= ++++++O  = +++++",
"++++++++  +++++++++ =############= ++++   == +++++",
"+++++++++ +++++++++ ##############      + oo +++++",
"+++++++++ +++++++++ ############## O+++++ o  +++++",
"+++++++++ ++++++++ =##############= ++++       +++",
"++++++++  ++++++++ =############### +++  O+@@@   +",
"+++++@@@ O++++++++ =############### ++  O+++++++ +",
"+@@@@    O+++++++ =#################   +++++++++  ",
"      O ++++++++ =################### +++++++++++ ",
"+++++++  +++++++ #################### ++++++++++++",
"+++++++O ++++++ ###################### +++++++++++",
"++++++++   +++ ######################## ++++++++++",
"++++++++OO     ######################## ++++++++++",
"++++++++++++++ ######################## O+++++++++",
"++@+++++++++++ ####      ########   ### O+++++++++",
"@@@+++++++++O   ## ++++++  ####  +++    O+++++++++",
"++++++++++++O ++  +++++++++    ++++++++ ++++++++++",
"++++++++++++O +++++++++++++++++++++++++ ++++++++++"
};
