/* XPM */
static char *stone_floor[] = {
/* columns rows colors chars-per-pixel */
"50 50 4 1 ",
"  c black",
". c #2B4B23",
"X c gray25",
"o c #5B5C5B",
/* pixels */
"XXXXXXXXXXXX. XXXXXXXXXXXXXXXXXXXXXXXX  XXXXXXXXXX",
"XXXXXXXXXXXX. XXXXXXXXXXXXXXXXXXXXXXXX XXXXXXXXXXX",
"XXXXXXXXXXXX. XXXXXXXXXXXXXXXXXXXXXXXX XXXXXXXXXXX",
"XXXXXXXXXXXX. XXXXXXXXXXXXXXXXXXXXXXXX XXXXXXXXXXX",
"XXXXXXXXXXXX  XXXXXXXXXXXXXXXXXXXXXXXX  ...XXXXXXX",
"XXXXXooXXXXX XXX     oooXXXXXXXXXXXXXX.   XXXXXXXX",
"XXXXXoXXXXXX     ...   oXXXXXXXXXXXXXXXXX XXXXXXXX",
"XXXXXXXXXXX  ....XXXXX  ooXXXXXXXXXXoXXXX  XXXXXXX",
"XXXXXXXXXX  .XXXXXXXXXX   XXXXXXXXXXoXXXX   XXXXXX",
"XXXXXXXXX. .XXXXXXXXXXXXX oXXXXXXXXoooXXX X  XXXXX",
"XXXXXXoo   XXXXXXXXXXXXXX  oXXXXXXXXoXXXX XX XXXXX",
"Xooooo   ..XXoXXXXXXXXXXXX   XXXXXXXoXXX  XX  XXXX",
"       .XXXXoooXXXXXXXXXXXXX  XXXXXXXXX  .XXX     ",
"XXXX XXXXXXXXoXXXXXXXXXXXXXXX X         .XXX  XXXX",
"XXXX XXXXXXXXXXXXXXXXXXXXXXXX   XX......XXXX XXXXX",
"XXXX XXXXXXXXXXXXXXXXXXXXXXXXX  XXXXXXXXXXXX .XXXX",
"XXXX XXXXXXXXXXXXXXXXXXXXXXXXXX  XXXXXXXXXXX .XXXX",
"XXXX  XXXXXXXXXXXXXXXXXXXXXXXXXX XXXXXXXXXXX .XXXX",
"XXXX. XXXXXXXXXXXXXXXXXXXXXXXXXX .XXXXXXXXXX .XXXX",
"XXXXX.  XXXXXXXXXXXXXXXXXXXXXXXX .XXXXXXXXXX XXXXX",
"XXoXXX.   XXXXXXXXooooooXXXXXXXX .XXXXXXXXXX XXXXX",
"XXXXXXX..               ooooXXX  .XXXXXXXXXX  XXXX",
"XXXXXXXXXXXXXXXXXXXX ..      X  .XXXXXXXoXXX.   XX",
"XXXXXXXXXXXXXXXXXXX  XX.. oo   XXXXXXXXoooXX  . .X",
"  XXXXXXXXXXXXXXXXX XXXXX  ooXXXXXXXXXXXoXXX XX   ",
"X   XXXXXXXXXXXXXXX XXXXXX  oXXXXXXXXXXXXXXX XXXXX",
"XX.   XXXXXXXXXXXX  XXXXXXX oXXXXXXXXXXXXXXX XXXXX",
"XX...  XXXXXXXXooX XXXXXXXX oXXXXXXXXXXXXXXX oXXXX",
"XXXXXX  XXXoooo    XXXXXXXX oXXXXXXXXXXXXXXX oXXXX",
"XXXXXXX X       XX  XXXXXXX  XXXXXXXXXXXXXX  oXXXX",
"XXXXXXX   .XXXXXXXX XXXoXXXX  XXXXXXXXXXXXX oXXXXX",
"XXXXXXXX ..XXXXXXXX XXXXXXXXX XXXXXXXXXX..  oXXXXX",
"XXXoXXXX XXXXXXXXXX XXXXXXXXX  XXXXXXXXX. XXXXXXXX",
"XXXXXXXX  XXXXXXXXXX XXXXXXXXX  XXXXXXX   XXXXXXXX",
"XXXXXXXXX XXXXXXXXXX XXXXXXXXXX         X XXXXXXXX",
"XXXXXXXXX XXXXXXXXXo XXXXXXXXXXXXX .XXXXX XXXXXXXX",
"XXXXXXXXX XXXXXXXXXo XXXXXXXXXXXX  .XXXX       XXX",
"XXXXXXXX  XXXXXXXXXo  .XXXXXXXXXX .XXXX  .Xooo   X",
"XXXXXooo .XXXXXXXXXo   ..XXXXXXXX XXXX  .XXXXXXX X",
"Xoooo    .XXXXXXXXXX X   XXX...  XXXX  XXXXXXXXX  ",
"      . XXXXXXXXXXXX XXX         XXXX XXXXXXXXXXX ",
"XXXXXXX  XXXXXXXXXX  XXXXXXXXXXX  XXX XXXXXXXXXXXX",
"XXXXXXX. XXXXXXXXX  .XXXXXXXXXXXX      XXXXXXXXXXX",
"XXXXXXXX   XXXXX   .XXXXXXXXXXXXXXXXXX  XXXXXXXXXX",
"XXXXXXXX..       ..XXXXXXXXXoXXXXXXXXXX XXXXXXXXXX",
"XXXXXXXXXXXXXXX XXXXXXXXXXXXXXXXXXXXXXX .XXXXXXXXX",
"XXoXXXXXXXXXXXX XXXXoooXXXXXXXXXXXXXXXX .XXXXXXXXX",
"oooXXXXXXXXX.   XXXXXXXXXXXXXXXXXXXXXXX .XXXXXXXXX",
"XXXXXXXXXXXX. XXXXXXXXXXXXXXXXXXXXXXXXX XXXXXXXXXX",
"XXXXXXXXXXXX. XXXXXXXXXXXXXXXXXXXXXXXXX XXXXXXXXXX"
};
