/* XPM */
static char *dd13fe9a3ead4c9ab07efd91de2b92efdZkVXkJWeXo8lSgX[] = {
/* columns rows colors chars-per-pixel */
"200 50 4 1 ",
"  c black",
". c #1E3A17",
"X c #2B4B23",
"o c #AE4224",
/* pixels */
"                                                                                                                                                                                                        ",
"ooX.o   o   XX   X   o   oo   oooooooXX..   o   o   X.   o   XXX...XXooooooo   oo   o   X   X    oooooX.oooo   X   .   oo  oo   o   oooooXX..XX   o   oo   o   o   X.   X   oooooooooooooooXX..XX oooooo",
"oooX                          oooooooooX                     oooX.Xooooooooo                     ooooooXooo                          ooooooXXoo                              ooooooooooooooooXXoo oooooo",
"oooo                          oooooooooo                      oooXoooooooooo                     oooooooooo                          ooooooooo                               oooooooooooooooooooo oooooo",
"ooooo   o        o   o        oooooooooo    o   o        o   ooooooooooooooo        o   o        oooooooooo    o   o   o    o   o   ooooooooooo   o        o   o        o   ooooooooooooooooooooo oooooo",
"oooooo ooo oooo ooo ooo oooo oooooooooooo   oo ooo ooo  ooo  oooooooooooooooo ooo  ooo ooo oo   oooooooooooo   oo ooo ooo  ooo ooo oooooooooooo  ooo  ooo ooo oo   ooo ooo oooooooooooooooooooooo oooooo",
"    o   o        o   o        oooooo        o   o        o   o    oooooo   o        o   o        o   oooooo    o   o   o    o   o   o    oooooo   o        o   o        o   ooooooooooooooooooooo oooooo",
"                              oooooo                              ooooo                              oooooo                              ooooX                               ooooooooooooooooooXo oooooo",
"                              oooooo                              ooooo                              oooooo                              ooooXX                              ooooooooooooooooooXX oooooo",
"o   o   X   oo   o   o   oo   oooooo   oX       o   oo   X   o   ooooooo   o   oo   o   o   .    o   oooooXX   o   o   oo  oo   o   oo  ooooX..   o   oo   o       oo   o   ooooooooooooooooooX..  ooooo",
"                                                                                                                                                                                                        ",
"                              XXoooo                              oooo                               oooooo                              oooooo                              oooXXXXXXooooo             ",
"                              oooooo                              oooo                               oooooo                              oooooo                              oooooooooooooo             ",
"o   o   o   oo   o   o   oo   oooooo   oo   o   o   oo   o   o   ooooo o   o   oo   o   o   oo   o   oooooo   oo   o   o   oo   o   o   ooooooo   o   oo   o   o   oo   o   ooooooooooooooo   oo   o   o",
"o   o   o   oooooooo ooooooooooooooo   oo   o   oooooo   o   o   ooooo o   o   oo   ooooo   oo   o   ooooooo  oo   o   o oooo   o   oo  ooooooo   o   oo   ooooooooooooooo oooooooooooooooo   oo   o   o",
"             ooooooo ooooooooooooooo            ooooo             oooo              ooooo            oooooo              ooo             oooooo            ooooooooooooooo oooooooooooooooo             ",
"             ooooooo ooooooooooooooo             oooo             oooo              ooooo            oooooo              ooo             ooooo             ooooooooooooooo oooooooooooooooo             ",
"    o   o    ooooooo ooooooooooooooo        o   ooooo    o   o    oooo o   o        ooooo        o   oooooo    o   o   o oooo   o   o    oooooo   o        ooooooooooooooo oooooooooooooooo   oo   o   o",
"oo ooo ooo oooooooXX Xooooooooooooooo ooo  ooo ooooooo  ooo ooo ooooXX Xo ooo ooo  ooooooo ooo  ooo oooooooo  ooo ooo XX Xoooo ooo ooo  oooooooo ooo  ooo ooooooooooooooXX Xooooooooooooooo   oo   o   o",
"    o   o        X   .    oooooooooo        o   ooooo    o   o    XX.  .   o        oooXX        o   oooooo    o   o        X   o   o    XXXXXX   o        o   o        .   .XXoooooooooooo             ",
"                                                                                                                                                                                                        ",
"                          oooooooooo             oooo             ooooo             ooooo            oooooo                              oooooo                              oooooooooooooo        o   o",
"o   o   o   oo   o   o   ooooooooooo   oo   o   oooooo   o   o   ooooooo   o   oo   ooooo   o    o   ooooooo   o   o   oo  oo   o   oo  ooooooo   o   oo   o   o   oo   o   ooooooooooooooooooooo oooooo",
"o   o   o   oo   o   o   oo   oooooo   oo   o   oooooooooooo ooooooooooo   o   oo   ooooo   o    o   oooooo    o   o   o   oo   o   ooooooooooo   o   oo   o   o   oo   o   ooooooooooooooooooooo oooooo",
"                              oooooo             ooooooooooo oooooooooo             ooooo            oooooo                          oooooooooo                              oooooooooooooooooooo oooooo",
"                              oooooo             ooooooooooo oooooooooo             ooooo            oooooo                          oooooooooo                              oooooooooooooooooooo oooooo",
"o   o   o   oo   o   o   oo   oooooo   oo   o   oooooooooooX ooooooooooo   o   oo   ooooo   o    o   oooooo    o   o   o   oo   o   ooooooooooo   o   oo   o   X   oo   o   ooooooooooooooooooooo oooooo",
"ooooo   o   oo   o   o   oo   oooooo   oX   o   oooooo   o   o   ooooooo   o   oo   ooooo   o    o   ooooooo   o   o   oo  oo   o   oo  ooooXXo   o   oo   o   X   oo   o   ooooooooooooooo   XX   o   o",
"oooo                          oooooo            ooooo             ooooo             ooooo            oooooo                              ooo..X                              oooooooooooooo             ",
"oooo                          oooooo             oooo             ooooo             ooooo            oooXXX                              ooXX.                               XXXXXooooooooo             ",
"                                                                                                                                                                                                        ",
"ooooooooooooooooooo ooo oooo ooo oooo ooo  ooo ooooooo  ooo ooo ooooooooo ooo ooo  ooooooo ooo  ooo oooooooo  ooo ooo oooooooo ooo o o  oooooooo ooo  ooo oooooooooooooooooooooooooooo oooo   oo   o   o",
"oooooooooooooooooo   o        oo ooo        o   ooooo    o   o    oooooo   o        ooooo        o   oooooo    o   o   oooooo   o        oooooo   o        ooooooooooooooooooooooooooo oooo             ",
"ooooooooooooooooo             oo ooo             oooo             ooooo             ooooo            oooooo             oooo             ooooo             ooooooooooooooooooooooooooo oooo             ",
"ooooooooooooooooo             oo ooo             oooo             ooooo             ooooo            oooooo             oooo             oooooo            ooooooooooooooooooooooooooo oooo        o   o",
"oooooooooooooooooo   o   oo   oo ooo   oo   o   oooooo   o   o   ooooooo   o   oo   ooooo   oo   o   ooooooo  oo   o   oooooo   o    o  ooooooo   o   oo   ooooooooooooooooooooooooooo ooooo  ooo ooo oo",
"o   o   o   oo   o   o   oo   oo ooo   oo   o   o   oo   o   o   ooooooo   o   oo   o   o   oo   o   oooooo   oo   o   oooooo   o       ooooooo   o   oo   o   o   oo   o   oooooooooo oooo        o   o",
"                              oo ooo                              ooooo                              oooooo             oooo             oooooo                              ooooooooo oooo             ",
"                              XX ooo                              ooooo                              oooooo             oooo             oooooo                              oooooooXX oooo             ",
"o   o   o   XX   X   o   oo   ..  oo   oX   .   X   oo   o   X   XXXoooo   o   X.   o   o   X.   X   oooooo   oX   X   oooooo   X       ooooXXX   .   oo   o   o   X.   o   oooooXXX..  ooo   XX   .   o",
"                                                                                                                                                                                                        ",
"                              oooooo                              ooooo                              XXXXXX             oooo             oooooo                              ooooooooooooooooooooooooooo",
"                              oooooo                              ooooo                              oooooo             oooo             ooooo                               ooooooooooooooooooooooooooo",
"    o   o        o   o        oooooo        o   o        o   o    oooooo   o        o   o        o   oooooo    o       oooooo   o   o    oooooo   o        o   o        o   oooooooooooooooooooooooooooo",
"oo ooo ooo oooo ooo ooo ooooooooooooooooo  ooo ooo ooo  ooo ooooo ooooooooooo ooo  ooo ooo ooo  oooooooooooo  ooo o o oooooooo ooo ooo  oooooooo ooo  ooo ooo ooo  oo  ooo ooooooooooooooooooooooooooooo",
"    o   o        o   o    oooooooooooooo    o   o        o   oooo oooooooooo        o   o        oooooooooo    o       oooooo   o   o    oooooo   o        o   o        o   oooooooooooooooooooooooooooo",
"                          oooooooooooooo                      ooo oooooooooo                     oooooooooo             oooo             ooooo                               ooooooooooooooooooooooooooo",
"                          oooooooooooooo                      ooo oooooooooo                     oooooooooo             oooo             oooooo                              ooooooooooooooooooooooooooo",
"o   o   o   oo   o   o   oooooooooooooooo   o   o   oo   o   oooo oooooooooo   oo   o   o   oo   ooooooooooo  oo       oooooo   o   oo  ooooooo   o   oo   o   o   oo   o   oooooooooooooooooooooooooooo",
"oXXXXoooooooooo oooXXXXXXXXXoooooooooooooooooooooooXXXXoooooooooo oooXXXXXXXXXoooooooooooooooooooooooXXXXoooooooooo oooXXXXXXXXXoooooooooooooooooooooooXXXXoooooooooo oooXXXXXXXXXoooooooooooooooooooooo"
};
