/* XPM */
static char *b06ea49186a54c0eb28db8b8b438e67eB5qYSwwaI6uCHcJw[] = {
/* columns rows colors chars-per-pixel */
"50 50 6 1 ",
"  c black",
". c #343434",
"X c #2B4B23",
"o c gray25",
"O c #5B5C5B",
"+ c white",
/* pixels */
"ooooooooooooX oooooooooooooooooooooooo  oooooooooo",
"ooooooooooooX oooooooooooooooooooooooo ooooooooooo",
"ooooooooooooX oooooooooooooooooooooooo ooooooooooo",
"ooooooooooooX oooooooooooooooooooooooo ooooooooooo",
"oooooooooooo  oooooooooooooooooooooooo  XXXooooooo",
"oooooOOooooo ooo     OOOooooooooooooooX   oooooooo",
"oooooOoooooo     XXX   Oooooooooooooooooo oooooooo",
"ooooooooooo  XXXXooooo  OOooooooooooOoooo  ooooooo",
"oooooooooo  Xoooooooooo   ooooooooooOoooo   oooooo",
"oooooooooX Xooooooooooooo OooooooooOOOooo o  ooooo",
"ooooooOO   oooooooooooooo  OooooooooOoooo oo ooooo",
"oOOOOO   XXooOoooooooooooo   oooooooOooo  oo  oooo",
"       XooooOOOooooooooooooo  ooooooooo  Xooo     ",
"oooo ooooooooOooooooooooooooo o         Xooo  oooo",
"oooo oooooooooooooooooooooooo   ooXXXXXXoooo ooooo",
"oooo ooooooooooooooooooooooooo  oooooooooooo Xoooo",
"oooo oooooooooooooooooooooooooo  ooooooooooo Xoooo",
"oooo  oooooooooooooooooooooooooo ooooooooooo Xoooo",
"ooooX oooooooooooooooooooooooooo Xoooooooooo Xoooo",
"oooooX  oooooooooooooooooooooooo Xoooooooooo ooooo",
"ooOoooX   oooo++++++OOOOoooooooo Xoooooooooo ooooo",
"oooooooXX    ++++++++   OOOOooo  Xoooooooooo  oooo",
"ooooooooooooo++++++.++X      o  XoooooooOoooX   oo",
"ooooooooooooo++++++.++oXX OO   ooooooooOOOoo  X Xo",
"  oooooooooo+.++..+.++ooo  OOoooooooooooOooo oo   ",
"o   oooooooo..++...+.+oooo  Oooooooooooooooo ooooo",
"ooX   oooooo++.+++++.+ooooo Oooooooooooooooo ooooo",
"ooXXX  oooooo+..++..+.ooooo Oooooooooooooooo Ooooo",
"oooooo  oooOO+++++.+.oooooo Oooooooooooooooo Ooooo",
"ooooooo o     ...+...oooooo  oooooooooooooo  Ooooo",
"ooooooo   Xooo...+...ooOoooo  ooooooooooooo Oooooo",
"oooooooo XXooo+++...ooooooooo ooooooooooXX  Oooooo",
"oooOoooo oooooooooo ooooo+ooo  oooooooooX oooooooo",
"oooooooo  oooooooooo oooo+++oo  ooooooo   oooooooo",
"ooooooooo oooooooooo ooooooo+++         o oooooooo",
"ooooooooo o++o......+..+oooooo++oo Xooooo oooooooo",
"ooooooooo++ooo.+..+..+++ooooooooo  Xoooo       ooo",
"ooooooo++ ooooo.+..++.++ooooooooo Xoooo  XoOOO   o",
"oooooO++ Xoooooo+.++++.+Xoooooooo oooo  Xooooooo o",
"oOOOO    Xoooooo.o....+  oooXXX  oooo  ooooooooo  ",
"      X oooooooooooo +oo     .+  oooo ooooooooooo ",
"ooooooo+.oooooooooo++++ooooo.+.o  ooo oooooooooooo",
"ooooooo++ooooooooo.+.+.+oooo++ooo      ooooooooooo",
"ooooooo+   ooooo   +ooooooo+o.oooooooo  oooooooooo",
"ooooooo+X++ ++++++++oooooo++++++++ooooo oooooooooo",
"ooooo++++++++++++++++ooo++++++++++++ooo Xooooooooo",
"ooOoooooooooooo ooooOOOoooooooooooooooo Xooooooooo",
"OOOoooooooooX   ooooooooooooooooooooooo Xooooooooo",
"ooooooooooooX ooooooooooooooooooooooooo oooooooooo",
"ooooooooooooX ooooooooooooooooooooooooo oooooooooo"
};
