/* XPM */
static char *_1fe3b1fe19344f7daf36c251c5db0ddv2e1asG5wrswVvj5[] = {
/* columns rows colors chars-per-pixel */
"50 50 6 1 ",
"  c black",
". c #343434",
"X c #2B4B23",
"o c gray25",
"O c #5B5C5B",
"+ c white",
/* pixels */
"ooooooooooooX oooooooooooooooooooooooo  oooooooooo",
"ooooooooooooX oooooooooooooooooooooooo ooooooooooo",
"ooooooooooooX oooooooooooooooooooooooo ooooooooooo",
"ooooooooooooX oooooooooooooooooooooooo ooooooooooo",
"oooooooooooo  oooooooooooooooooooooooo  XXXooooooo",
"oooooOOooooo ooo     OOOooooooooooooooX   oooooooo",
"oooooOoooooo     XXX   Oooooooooooooooooo oooooooo",
"ooooooooooo  XXXXooooo  OOooooooooooOoooo  ooooooo",
"oooooooooo  Xoooooooooo   ooooooooooOoooo   oooooo",
"oooooooooX Xooooooooooooo OooooooooOOOooo o  ooooo",
"ooooooOO   oooooooooooooo  OooooooooOoooo oo ooooo",
"oOOOOO   XXooOoooooooooooo   oooooooOooo  oo  oooo",
"       XooooOOOooooooooooooo  ooooooooo  Xooo     ",
"oooo ooooooooOooooooooooooooo o         Xooo  oooo",
"oooo oooooooooooooooooooooooo   ooXXXXXXoooo ooooo",
"oooo ooooooooo++++++oooooooooo  oooooooooooo Xoooo",
"oooo oooooooo++++++++oooooooooo  ooooooooooo Xoooo",
"oooo  ooooooo++++++.++oooooooooo ooooooooooo Xoooo",
"ooooX ooooooo++++++.++oooooooooo Xoooooooooo Xoooo",
"oooooX  oooo+.++..+.++oooooooooo Xoooooooooo ooooo",
"ooOoooX   oo..++...+.+OOoooooooo Xoooooooooo ooooo",
"oooooooXX   ++.+++++.+  OOOOooo  Xoooooooooo  oooo",
"ooooooooooooo+..++..+.X      o  XoooooooOoooX   oo",
"ooooooooooooo+++++.+.ooXX OO   ooooooooOOOoo  X Xo",
"  oooooooooooo...+...oooo  OOoooooooooooOooo oo   ",
"o   oooooooooo...+...ooooo  Oooooooooooooooo ooooo",
"ooX   oooooooo+++...ooooo+o Oooooooooooooooo ooooo",
"ooXXX  oooo++ooOOo oooooo+++Oooooooooooooooo Ooooo",
"oooooo  o++OOOO    oooooooo +++ooooooooooooo Ooooo",
"ooooooo++       oo  ooooooo  o++ooooooooooo  Ooooo",
"oooooo++  Xooo......+..+oooo  ooooooooooooo Oooooo",
"oooooooo XXooo.+..+..+++ooooo ooooooooooXX  Oooooo",
"oooOoooo oooooo.+..++.++ooooo.+oooooooooX oooooooo",
"oooooooo  oooooo.+...++.oooo.+. ooooooo   oooooooo",
"ooooooo+. oooooo+.++++.+oooo++o         o oooooooo",
"ooooooo++ ooooooooo++++oooo+..oooo Xooooo oooooooo",
"ooooooo+o oooooooooO +oo.o+.+oooo  Xoooo       ooo",
"ooooooo+  ooooooooo++++o.+.+ooooo Xoooo  XoOOO   o",
"oooooOO+ Xoooooooo.+.+.++++.ooooo oooo  Xooooooo o",
"oOOOO +++.oooooooo..+++. +o+XXX  oooo  ooooooooo  ",
"      ++.+oooooooooo +.o   +     oooo ooooooooooo ",
"ooooo+.+ o.oooooooo  ooooooooooo  ooo oooooooooooo",
"ooooo+.. ooooooooo  Xoooooooooooo      ooooooooooo",
"ooooo.oo   ooooo   +ooooooo+oooooooooo  oooooooooo",
"ooooooooXX  ++++++++ooooooo+++++++ooooo oooooooooo",
"ooooooooooo++++++++++oooooo+++++++++ooo Xooooooooo",
"ooOoooooooooooo ooooOOOoooooooooooooooo Xooooooooo",
"OOOoooooooooX   ooooooooooooooooooooooo Xooooooooo",
"ooooooooooooX ooooooooooooooooooooooooo oooooooooo",
"ooooooooooooX ooooooooooooooooooooooooo oooooooooo"
};
