/* XPM */
static char *c9f14da18850474481b533018876ebc5n2xHzdFSlESYoDti[] = {
/* columns rows colors chars-per-pixel */
"50 50 6 1 ",
"  c black",
". c #343434",
"X c #2B4B23",
"o c gray25",
"O c #5B5C5B",
"+ c white",
/* pixels */
"ooooooooooooX oooooooooooooooooooooooo  oooooooooo",
"ooooooooooooX oooooooooooooooooooooooo ooooooooooo",
"ooooooooooooX oooooooooooooooooooooooo ooooooooooo",
"ooooooooooooX oooooooooooooooooooooooo ooooooooooo",
"oooooooooooo  oooooooooooooooooooooooo  XXXooooooo",
"oooooOOooooo ooo     OOOooooooooooooooX   oooooooo",
"oooooOoooooo     XXX   Oooooooooooooooooo oooooooo",
"ooooooooooo  XXXXooooo  OOooooooooooOoooo  ooooooo",
"oooooooooo  Xo++++++ooo   ooooooooooOoooo   oooooo",
"oooooooooX Xo++++++++oooo OooooooooOOOooo o  ooooo",
"ooooooOO   oo++++++.++ooo  OooooooooOoooo oo ooooo",
"oOOOOO   XXoo++++++.++oooo   oooooooOooo  oo  oooo",
"       Xoooo+.++..+.++oooooo  ooooooooo  Xooo     ",
"oooo ooooooo..++...+.+ooooooo o         Xooo  oooo",
"oooo ooooooo++.+++++.+ooooooo   ooXXXXXXoooo ooooo",
"oooo oooooooo+..++..+.oooooooo  oooooooooooo Xoooo",
"oooo oooooooo+++++.+.oooooooooo  ooooooooooo Xoooo",
"oooo  oooooooo...+...+++oooooooo ooooooooooo Xoooo",
"ooooX oooooooo...+....+.+ooooooo Xoooooooooo Xoooo",
"oooooX  oooooo+++...+.+.+++ooooo Xoooooooooo ooooo",
"ooOoooX   ooo+......+..+ooo+++oo Xoooooooooo ooooo",
"oooooooXX  +++.+..+..+++.OOOo.+  Xoooooooooo  oooo",
"ooooooooo++oooo.+..++.++.   .+. XoooooooOoooX   oo",
"oooooooo+ooooooo.+...++.X OO++ ooooooooOOOoo  X Xo",
"  ooooo+.ooooooo+.++++.+o  +..ooooooooooOooo oo   ",
"o   ooo++ooooooo.o....+ooo+.+ooooooooooooooo ooooo",
"ooX   o++ooooooooo ++++oo+.+Oooooooooooooooo ooooo",
"ooXXX  +oooooooOOo oo+oo+++.Oooooooooooooooo Ooooo",
"oooooo +oooOOOO    oo+ooo+o+Oooooooooooooooo Ooooo",
"ooooooo+o       oo ++++oooo+ oooooooooooooo  Ooooo",
"oooooo+++.Xooooooo.+.+.+oooo  ooooooooooooo Oooooo",
"oooooo++.+Xooooo+o.++++.++ooo ooooooooooXX  Oooooo",
"oooOo+.+ o.oooo++o..+++.+++oo  oooooooooX oooooooo",
"ooooo+..  ooooo++ooo +.ooo++oo  ooooooo   oooooooo",
"ooooo.ooo oooo++oooo oooooo++oo         o oooooooo",
"ooooooooo oooo+ooooO ooooooo++oooo Xooooo oooooooo",
"ooooooooo ooo++ooooO ooooooo+.ooo  Xoooo       ooo",
"oooooooo  ooo++ooooO  Xoooooo.ooo Xoooo  XoOOO   o",
"oooooOOO Xoooo.ooooO   XXooooooo+ oooo  Xooooooo o",
"oOOOO    Xooo+oooooo o   oooXXX++oooo  ooooooooo  ",
"      X ooooo+++oooo ooo      ++ oooo ooooooooooo ",
"ooooooo  oooooo+++o  oooooooo++o  ooo oooooooooooo",
"oooooooX oooooooo++ Xooooooo++ooo      ooooooooooo",
"oooooooo   ooooo ..+ooooooo+.ooooooooo  oooooooooo",
"ooooooooXX     +++++ooooooo+++++ooooooo oooooooooo",
"oooooooooooo+++++oo++oooooo+o++++++oooo Xooooooooo",
"ooOoooooooooooo ooooOOOoooooooooooooooo Xooooooooo",
"OOOoooooooooX   ooooooooooooooooooooooo Xooooooooo",
"ooooooooooooX ooooooooooooooooooooooooo oooooooooo",
"ooooooooooooX ooooooooooooooooooooooooo oooooooooo"
};
