/* XPM */
static char *_9811b6e125a486091b5f50e6a9f188bl0Y1MTJRCW0zpCcZ[] = {
/* columns rows colors chars-per-pixel */
"50 50 6 1 ",
"  c black",
". c #343434",
"X c #2B4B23",
"o c gray25",
"O c #5B5C5B",
"+ c white",
/* pixels */
"ooooooooooooX oooooooooooooooooooooooo  oooooooooo",
"ooooooooooooX oooooooooooooooooooooooo ooooooooooo",
"ooooooooooooX oooooooooooooooooooooooo ooooooooooo",
"ooooooooooooX oooooooooooooooooooooooo ooooooooooo",
"oooooooooooo  oooooooooooooooooooooooo  XXXooooooo",
"oooooOOooooo ooo     OOOooooooooooooooX   oooooooo",
"oooooOoooooo     XXX   Oooooooooooooooooo oooooooo",
"ooooooooooo  XXXXooooo  OOooooooooooOoooo  ooooooo",
"oooooooooo  Xoooooooooo   ooooooooooOoooo   oooooo",
"oooooooooX Xooooooooooooo OooooooooOOOooo o  ooooo",
"ooooooOO   oooooooooooooo  OooooooooOoooo oo ooooo",
"oOOOOO   XXooO++++++oooooo   oooooooOooo  oo  oooo",
"       XooooO++++++++ooooooo  ooooooooo  Xooo     ",
"oooo oooooooo++++++.++ooooooo o         Xooo  oooo",
"oooo oooooooo++++++.++ooooooo   ooXXXXXXoooo ooooo",
"oooo ooooooo+.++..+.++oooooooo  oooooooooooo Xoooo",
"oooo ooooooo..++...+.+ooooooooo  ooooooooooo Xoooo",
"oooo  oooooo++.+++++.+oooooooooo ooooooooooo Xoooo",
"ooooX ooooooo+..++..+.oooooooooo Xoooooooooo Xoooo",
"oooooX  ooooo+++++.+.ooooooooooo Xoooooooooo ooooo",
"ooOoooX   oooo...+...OOOoooooooo Xoooooooooo ooooo",
"oooooooXX     ...+...   +OOOooo  Xoooooooooo  oooo",
"oooooooooooooo+++... XX +++  o  XoooooooOoooX   oo",
"ooooooooooooooooooo  ooXX O+++ ooooooooOOOoo  X Xo",
"  oooooooooooo......+..+o  OO++oooooooooOooo oo   ",
"o   ooooooo++o.+..+..+++oo  Oooooooooooooooo ooooo",
"ooX   ooo++oooo.+..++.++.oo O.+ooooooooooooo ooooo",
"ooXXX  ++ooooooO.+...++..oo .+.ooooooooooooo Ooooo",
"oooooo++oooOOOO +.++++.+ooo ++oooooooooooooo Ooooo",
"ooooooo o       .o....+oooo+..ooooooooooooo  Ooooo",
"ooooooo+. Xoooooooo++++Ooo+.+ ooooooooooooo Oooooo",
"ooooooo++XXoooooooo o+ooo+.+o ooooooooooXX  Oooooo",
"oooOooo+ oooooooooo++++o+++.o  oooooooooX oooooooo",
"ooooooo+  oooooooo.+.+.+o+o+oo  ooooooo   oooooooo",
"ooooooo+o oooooooo.++++.ooo+ooo         o oooooooo",
"oooooo+++.oooooooo..+++.oooooooooo Xooooo oooooooo",
"oooooo++.+oooooooooO +.oooooooooo  Xoooo       ooo",
"ooooo+.+  .ooooooooO  Xo++ooooooo Xoooo  XoOOO   o",
"ooooo+.. Xoooooo++oO   XX+++ooooo oooo  Xooooooo o",
"oOOOO.   Xooooo++ooo o   oo++XX  oooo  ooooooooo  ",
"      X oooooo++oooo ooo    +++  oooo ooooooooooo ",
"ooooooo  oooo++oooo  ooooooooooo  ooo oooooooooooo",
"oooooooX ooo++oooo  Xoooooooooooo      ooooooooooo",
"oooooooo   ooooo   +ooooooo+oooooooooo  oooooooooo",
"ooooooooXX  ++++++++ooooooo+++++++ooooo oooooooooo",
"ooooooooooo++++++++++oooooo+++++++++ooo Xooooooooo",
"ooOoooooooooooo ooooOOOoooooooooooooooo Xooooooooo",
"OOOoooooooooX   ooooooooooooooooooooooo Xooooooooo",
"ooooooooooooX ooooooooooooooooooooooooo oooooooooo",
"ooooooooooooX ooooooooooooooooooooooooo oooooooooo"
};
