/* XPM */
static char *_1cd8e12122f461afdfde82b67ba4bcc97yY3cbDlPBnaPD9[] = {
/* columns rows colors chars-per-pixel */
"50 50 6 1 ",
"  c black",
". c #343434",
"X c #2B4B23",
"o c gray25",
"O c #5B5C5B",
"+ c white",
/* pixels */
"ooooooooooooX oooooooooooooooooooooooo  oooooooooo",
"ooooooooooooX oooooooooooooooooooooooo ooooooooooo",
"ooooooooooooX oooooooooooooooooooooooo ooooooooooo",
"ooooooooooooX oooooooooooooooooooooooo ooooooooooo",
"oooooooooooo  oooooooooooooooooooooooo  XXXooooooo",
"oooooOOooooo ooo     OOOooooooooooooooX   oooooooo",
"oooooOoooooo  ++++++   Oooooooooooooooooo oooooooo",
"ooooooooooo  ++++++++o  OOooooooooooOoooo  ooooooo",
"oooooooooo  X++++++.++o   ooooooooooOoooo   oooooo",
"oooooooooX Xo++++++.++ooo OooooooooOOOooo o  ooooo",
"ooooooOO   o+.++..+.++ooo  OooooooooOoooo oo ooooo",
"oOOOOO   XXo..++...+.+oooo   oooooooOooo  oo  oooo",
"       Xoooo++.+++++.+oooooo  ooooooooo  Xooo     ",
"oooo oooooooo+..++..+.ooooooo o         Xooo  oooo",
"oooo oooooooo+++++.+.oooooooo   ooXXXXXXoooo ooooo",
"oooo ooooooooo...+...+++oooooo  oooooooooooo Xoooo",
"oooo ooooooooo...+....+.+oooooo  ooooooooooo Xoooo",
"oooo  oooooooo+++...+.+.+++ooooo ooooooooooo Xoooo",
"ooooX ooooooo+......+..+ooo+++oo Xoooooooooo Xoooo",
"oooooX  ooo+++.+..+..+++.oooo.+o Xoooooooooo ooooo",
"ooOoooX  ++oooo.+..++.++.ooo.+.o Xoooooooooo ooooo",
"oooooooX+       .+...++.OOOO++o  Xoooooooooo  oooo",
"ooooooo+.ooooooo+.++++.+   +..  XoooooooOoooX   oo",
"ooooooo++ooooooo.o....+XX +.+  ooooooooOOOoo  X Xo",
"  ooooo++oooooooooo++++oo+.+OoooooooooooOooo oo   ",
"o   ooo+ooooooooooo o+oo+++.Oooooooooooooooo ooooo",
"ooX   o+oooooooooo  o+ooo+o+Oooooooooooooooo ooooo",
"ooXXX  +oooooooOOo ++++oooo+Oooooooooooooooo Ooooo",
"oooooo+++.oOOOO   .+.+.+ooo Oooooooooooooooo Ooooo",
"oooooo++.+      o+.++++.++o  oooooooooooooo  Ooooo",
"ooooo+.+  .ooooo++..+++.+++o  ooooooooooooo Oooooo",
"ooooo+.. XXooooo++o o+.ooo++o ooooooooooXX  Oooooo",
"oooOo.oo oooooo++oo ooooooo++  oooooooooX oooooooo",
"oooooooo  ooooo+oooo ooooooo++  ooooooo   oooooooo",
"ooooooooo oooo++oooo ooooooo+.o         o oooooooo",
"ooooooooo oooo++oooO oooooooo.oooo Xooooo oooooooo",
"ooooooooo ooooo.+ooO oooooooo+ooo  Xoooo       ooo",
"oooooooo  ooooo++ooO  Xooooo++ooo Xoooo  XoOOO   o",
"oooooOOO Xoooooo+ooO   XXooo++ooo oooo  Xooooooo o",
"oOOOO    Xoooooo+ooo o   ooo++X  oooo  ooooooooo  ",
"      X oooooooo++oo ooo    +    oooo ooooooooooo ",
"ooooooo  oooooooo+o  ooooooo+ooo  ooo oooooooooooo",
"oooooooX oooooooo++ Xooooooo+oooo      ooooooooooo",
"oooooooo   ooooo ..+ooooooo+.ooooooooo  oooooooooo",
"ooooooooXX     +++++ooooooo+++++ooooooo oooooooooo",
"oooooooooooo+++++oo++oooooo+o++++++oooo Xooooooooo",
"ooOoooooooooooo ooooOOOoooooooooooooooo Xooooooooo",
"OOOoooooooooX   ooooooooooooooooooooooo Xooooooooo",
"ooooooooooooX ooooooooooooooooooooooooo oooooooooo",
"ooooooooooooX ooooooooooooooooooooooooo oooooooooo"
};
