/* XPM */
static char *_d140f9cccef439a844e87bdbf093ac6CnpJbfyuPD371Gs0[] = {
/* columns rows colors chars-per-pixel */
"50 50 7 1 ",
"  c black",
". c #343434",
"X c #2B4B23",
"o c gray25",
"O c #5B5C5B",
"+ c #EC454B",
"@ c white",
/* pixels */
"ooooooooooooX oooooooooooooooooooooooo  oooooooooo",
"ooooooooooooX oooooooooooooooooooooooo ooooooooooo",
"ooooooooooooX oooooooooooooooooooooooo ooooooooooo",
"ooooooooooooX oooooooooooooooooooooooo ooooooooooo",
"oooooooooooo  oooooooooooooooooooooooo  XXXooooooo",
"oooooOOooooo ooo     OOOooooooooooooooX   oooooooo",
"oooooOoooooo     XXX   Ooooooo@@@@@@ooooo oooooooo",
"ooooooooooo  XXXXooooo  OOooo@@@@@@@@oooo  ooooooo",
"oooooooooo  Xoooooooooo   oo@@.@@@@@@oooo   oooooo",
"oooooooooX Xooooooooooooo Oo@@.@@@@@@Oooo o  ooooo",
"ooooooOO   oooooooooooooo  O@@.@..@@.@ooo oo ooooo",
"oOOOOO   XXooOoooooooooooo  @.@++.@@+.oo  oo  oooo",
"       XooooOOOooooooooooooo@.@@@@@.@@o  Xooo     ",
"oooo ooooooooOoooooooooooooo.@..@@..@   Xooo  oooo",
"oooo oooooooooooooooooooooooo.@.@@@@@XXXoooo ooooo",
"oooo ooooooooooooooooooooo@@@...@...oooooooo Xoooo",
"oooo oooooooooooooooooooo@.@....@@@@oooooooo Xoooo",
"oooo  ooooooooooooooooo@@@.@.@...@@@oooooooo Xoooo",
"ooooX oooooooooooooooo@ooo@..@......@ooooooo Xoooo",
"oooooX  ooooooooooooo@ooo.@@@..@..@.@ooooooo ooooo",
"ooOoooX   ooooooooOO@.OOo.@@.@@..@.oo@oooooo ooooo",
"oooooooXX           .@  OO.@@...@.oooo@ooooo  oooo",
"oooooooooooooooooooo .@   @.@@@@.@ooooo@OoooX   oo",
"ooooooooooooooooooo  o@.@ O@....o.ooooo.@Ooo  X Xo",
"  ooooooooooooooooo ooo@.@ @@@@oooooooo@@ooo oo   ",
"o   ooooooooooooooo oooo@.@ @oooooooooo@@ooo ooooo",
"ooX   oooooooooooo  oooo.@@ @ooooooooooo@ooo ooooo",
"ooXXX  ooooooooOOo oooooo@.@@@@ooooooooo@ooo Ooooo",
"oooooo  oooOOOO    oooooo.@.@.@.oooooooo@ooo Ooooo",
"ooooooo o       oo  oooo@@.@@@@.@ooooo.@@@o  Ooooo",
"ooooooo   Xoooooooo ooo@@@.@@@..@@oooo@.@@o Oooooo",
"oooooooo XXoooooooo oo@@ooo.@ oo@@ooo.oo@.@ Oooooo",
"oooOoooo oooooooooo o@@oooooo  oo@@ooooo..@ooooooo",
"oooooooo  oooooooooo@@oooooooo  oo@oooo   .ooooooo",
"ooooooooo oooooooooo.@ooooooooo   @@    o oooooooo",
"ooooooooo oooooooooO.ooooooooooooo@@ooooo oooooooo",
"ooooooooo oooooooooO@oooooooooooo@.Xoooo       ooo",
"oooooooo  oooooooooO@@Xoooooooooo@@oooo  XoOOO   o",
"oooooOOO XoooooooooO@@ XXoooooooo@oooo  Xooooooo o",
"oOOOO    Xoooooooooo@@   oooXXX  @ooo  ooooooooo  ",
"      X oooooooooooo @oo        @@ooo ooooooooooo ",
"ooooooo  oooooooooo  @oooooooooo@ ooo oooooooooooo",
"oooooooX ooooooooo  X@ooooooooo@@      ooooooooooo",
"oooooooo   ooooo   Xo.@ooooooo@..ooooo  oooooooooo",
"ooooooooXX       X@@@@@oooooOo@@@@@oooo oooooooooo",
"ooooooooooooooo@@@@@@o@oooooo@@oo@@@@@o Xooooooooo",
"ooOoooooooooooo ooooOOOoooooooooooooooo Xooooooooo",
"OOOoooooooooX   ooooooooooooooooooooooo Xooooooooo",
"ooooooooooooX ooooooooooooooooooooooooo oooooooooo",
"ooooooooooooX ooooooooooooooooooooooooo oooooooooo"
};
