/* XPM */
static char *_8dcc35f5e1341b0dc8e634b3390ea67YFNegESbWOAevxyL[] = {
/* columns rows colors chars-per-pixel */
"50 50 6 1 ",
"  c black",
". c #343434",
"X c #2B4B23",
"o c gray25",
"O c #5B5C5B",
"+ c white",
/* pixels */
"ooooooooooooX oooooooooooooooooooooooo  oooooooooo",
"ooooooooooooX oooooooooooooooooooooooo ooooooooooo",
"ooooooooooooX oooooooooooooooooooooooo ooooooooooo",
"ooooooooooooX oooooooooooooooooooooooo ooooooooooo",
"oooooooooooo  oooooooooooooooooooooooo  XXXooooooo",
"oooooOOooooo ooo     OOOooooooooooooooX   oooooooo",
"oooooOoooooo     XXX   Oooooooooooooooooo oooooooo",
"ooooooooooo  XXXXooooo  OOooooooooooOoooo  ooooooo",
"oooooooooo  Xoooooooooo   ooooooooooOoooo   oooooo",
"oooooooooX Xooooooooooooo OooooooooOOOooo o  ooooo",
"ooooooOO   oooooooooooooo  OooooooooOoooo oo ooooo",
"oOOOOO   XXooOoooooooooooo   oooooooOooo  oo  oooo",
"       XooooOOOooooooooooooo  ooooooooo  Xooo     ",
"oooo ooooooooOooooooooooooooo o         Xooo  oooo",
"oooo oooooooooooooooooooooooo   ooXXXXXXoooo ooooo",
"oooo ooooooooooooooooooooooooo  oooooooooooo Xoooo",
"oooo oooooooooooooooooooooooooo  ooooooooooo Xoooo",
"oooo  oooooooooooooooooooooooooo ooooooooooo Xoooo",
"ooooX oooooooooooooooooooooooooo Xoooooooooo Xoooo",
"oooooX  oooooooooooooooooooooooo Xoooooooooo ooooo",
"ooOoooX   ooooooooOOOOOOoooooo++++++oooooooo ooooo",
"oooooooXX               OOOOo++++++++ooooooo  oooo",
"oooooooooooooooooooo XX     ++.++++++oooOoooX   oo",
"ooooooooooooooooooo  ooXX OO++.++++++ooOOOoo  X Xo",
"  ooooooooooooooooo ooooo  O++.+..++.+ooOooo oo   ",
"o   ooooooooooooooo oooooo  +.+...++..oooooo ooooo",
"ooX   oooooooooooo  ooooooo +.+++++.++oooooo ooooo",
"ooXXX  ooooooooOOo oooooooo .+..++..+ooooooo Ooooo",
"oooooo  oooOOOO    oooooooo O.+.+++++ooooooo Ooooo",
"ooooooo o       oo  ooooooo  ...+...ooooooo  Ooooo",
"ooooooo   Xoooooooo oooOoooo ...+...ooooooo Oooooo",
"oooooooo XXoooooooo ooooooooo ...+++ooooXX  Oooooo",
"oooOoooo oooooooooo oooo+oooo  oooooooooX oooooooo",
"oooooooo  oooooooooo o+++ooooo  ooooooo   oooooooo",
"ooooooooo ooooooooo+++ooooooooo         o oooooooo",
"ooooooooo oooooooo++ ooooo+..+......o++oo oooooooo",
"ooooooooo oooooooooO ooooo+++..+..+.ooo++      ooo",
"oooooooo  oooooooooO  Xooo++.++..+.oooo  ++OOO   o",
"oooooOOO XoooooooooO   XXo+.++++.+oooo  Xo++oooo o",
"oOOOO    Xoooooooooo o   oo+.... .ooo  ooooooooo  ",
"      X ooooooooooo+.ooo    +    oooo ooooooooooo ",
"ooooooo  oooooooooo.+.ooooo++++o  ooo ooo.+ooooooo",
"oooooooX ooooooooo  ++oooo+.+.+.o      oo++ooooooo",
"oooooooo   ooooo   X.o+ooooooo+ooooooo  oo+ooooooo",
"ooooooooXX      ++++++++ooooOo++++++++o++o+ooooooo",
"oooooooooooooo++++++++++++ooo++++++++++++++++ooooo",
"ooOoooooooooooo ooooOOOoooooooooooooooo Xooooooooo",
"OOOoooooooooX   ooooooooooooooooooooooo Xooooooooo",
"ooooooooooooX ooooooooooooooooooooooooo oooooooooo",
"ooooooooooooX ooooooooooooooooooooooooo oooooooooo"
};
