/* XPM */
static char *fc741d562e994b15bcf575ccb6b58e7aD9eMz2LLysTC22h8[] = {
/* columns rows colors chars-per-pixel */
"50 50 6 1 ",
"  c black",
". c #343434",
"X c #2B4B23",
"o c gray25",
"O c #5B5C5B",
"+ c white",
/* pixels */
"ooooooooooooX oooooooooooooooooooooooo  oooooooooo",
"ooooooooooooX oooooooooooooooooooooooo ooooooooooo",
"ooooooooooooX oooooooooooooooooooooooo ooooooooooo",
"ooooooooooooX oooooooooooooooooooooooo ooooooooooo",
"oooooooooooo  oooooooooooooooooooooooo  XXXooooooo",
"oooooOOooooo ooo     OOOooooooooooooooX   oooooooo",
"oooooOoooooo     XXX   Ooooooo++++++ooooo oooooooo",
"ooooooooooo  XXXXooooo  OOooo++++++++oooo  ooooooo",
"oooooooooo  Xoooooooooo   oo++.++++++oooo   oooooo",
"oooooooooX Xooooooooooooo Oo++.++++++Oooo o  ooooo",
"ooooooOO   oooooooooooooo  O++.+..++.+ooo oo ooooo",
"oOOOOO   XXooOoooooooooooo  +.+...++..oo  oo  oooo",
"       XooooOOOooooooooooooo+.+++++.++o  Xooo     ",
"oooo ooooooooOoooooooooooooo.+..++..+   Xooo  oooo",
"oooo oooooooooooooooooooooooo +.+++++XXXoooo ooooo",
"oooo ooooooooooooooooooooo+++...+...oooooooo Xoooo",
"oooo oooooooooooooooooooo+.+....+...oooooooo Xoooo",
"oooo  ooooooooooooooooo+++.+.+...+++oooooooo Xoooo",
"ooooX oooooooooooooo+++ooo+..+......+ooooooo Xoooo",
"oooooX  ooooooooooo+.oooo.+++..+..+.+++ooooo ooooo",
"ooOoooX   ooooooooO.+.OOo.++.++..+.oooo++ooo ooooo",
"oooooooXX           ++  OO.++...+.ooooooo+oo  oooo",
"oooooooooooooooooooo..+   +.++++.+ooooooO.+oX   oo",
"ooooooooooooooooooo  +.+X O+....o.oooooOO++o  X Xo",
"  ooooooooooooooooo oo+.+  ++++oooooooooO++o oo   ",
"o   ooooooooooooooo oo.+++  +ooooooooooooo+o ooooo",
"ooX   oooooooooooo  oo+o+oo +ooooooooooooo+o ooooo",
"ooXXX  ooooooooOOo ooo+oooo++++ooooooooooo+o Ooooo",
"oooooo  oooOOOO    ooooooo+.+.+.oooooooo.+++ Ooooo",
"ooooooo o       oo  oooo++.++++.+ooooooo+.++ Ooooo",
"ooooooo   Xoooooooo ooo+++.+++..++ooooo.oo+.+ooooo",
"oooooooo XXoooooooo oo++ooo.+ oo++ooooooXX..+ooooo",
"oooOoooo oooooooooo o++oooooo  oo++oooooX oo.ooooo",
"oooooooo  oooooooooo++oooooooo  oo+oooo   oooooooo",
"ooooooooo oooooooooo.+ooooooooo   ++    o oooooooo",
"ooooooooo oooooooooO.ooooooooooooo++ooooo oooooooo",
"ooooooooo oooooooooO+oooooooooooo+.Xoooo       ooo",
"oooooooo  oooooooooO++Xoooooooooo++oooo  XoOOO   o",
"oooooOOO XoooooooooO++ XXoooooooo+oooo  Xooooooo o",
"oOOOO    Xoooooooooo++   oooXXX  +ooo  ooooooooo  ",
"      X oooooooooooo +oo        ++ooo ooooooooooo ",
"ooooooo  oooooooooo  +oooooooooo+ ooo oooooooooooo",
"oooooooX ooooooooo  X+ooooooooo++      ooooooooooo",
"oooooooo   ooooo   Xo.+ooooooo+..ooooo  oooooooooo",
"ooooooooXX       X+++++oooooOo+++++oooo oooooooooo",
"ooooooooooooooo++++++o+oooooo++oo+++++o Xooooooooo",
"ooOoooooooooooo ooooOOOoooooooooooooooo Xooooooooo",
"OOOoooooooooX   ooooooooooooooooooooooo Xooooooooo",
"ooooooooooooX ooooooooooooooooooooooooo oooooooooo",
"ooooooooooooX ooooooooooooooooooooooooo oooooooooo"
};
