/* XPM */
static char *cd91e92a1ec64e4af3965fec7889c7ccoigao1keax8811Y8[] = {
/* columns rows colors chars-per-pixel */
"50 50 6 1 ",
"  c black",
". c #343434",
"X c #2B4B23",
"o c gray25",
"O c #5B5C5B",
"+ c white",
/* pixels */
"ooooooooooooX oooooooooooooooooooooooo  oooooooooo",
"ooooooooooooX oooooooooooooooooooooooo ooooooooooo",
"ooooooooooooX oooooooooooooooooooooooo ooooooooooo",
"ooooooooooooX oooooooooooooooooooooooo ooooooooooo",
"oooooooooooo  oooooooooooooooooooooooo  XXXooooooo",
"oooooOOooooo ooo     OOOooooooooooooooX   oooooooo",
"oooooOoooooo     XXX   Oooooooooooooooooo oooooooo",
"ooooooooooo  XXXXooooo  OOooooooooooOoooo  ooooooo",
"oooooooooo  Xoooooooooo   ooooooooooOoooo   oooooo",
"oooooooooX Xooooooooooooo OooooooooOOOooo o  ooooo",
"ooooooOO   oooooooooooooo  OooooooooOoooo oo ooooo",
"oOOOOO   XXooOoooooooooooo   o++++++Oooo  oo  oooo",
"       XooooOOOooooooooooooo ++++++++oo  Xooo     ",
"oooo ooooooooOoooooooooooooo++.++++++   Xooo  oooo",
"oooo ooooooooooooooooooooooo++.++++++XXXoooo ooooo",
"oooo ooooooooooooooooooooooo++.+..++.+oooooo Xoooo",
"oooo ooooooooooooooooooooooo+.+...++..oooooo Xoooo",
"oooo  oooooooooooooooooooooo+.+++++.++oooooo Xoooo",
"ooooX oooooooooooooooooooooo.+..++..+ooooooo Xoooo",
"oooooX  ooooooooooooooooooooo.+.+++++ooooooo ooooo",
"ooOoooX   ooooooooOOOOOOooooo...+...oooooooo ooooo",
"oooooooXX               O+OOo...+...oooooooo  oooo",
"oooooooooooooooooooo XX+++   o...+++ooooOoooX   oo",
"ooooooooooooooooooo +++XX OO   ooooooooOOOoo  X Xo",
"  ooooooooooooooooo++oooo +..+......ooooOooo oo   ",
"o   ooooooooooooooo oooooo+++..+..+.o++ooooo ooooo",
"ooX   oooooooooooo +.oooo.++.++..+.oooo++ooo ooooo",
"ooXXX  ooooooooOOo .+.ooo..++...+.ooooooo++o Ooooo",
"oooooo  oooOOOO    o++oooo+.++++.+oooooooo++ Ooooo",
"ooooooo o       oo  ..+oooo+....o.ooooooooo  Ooooo",
"ooooooo   Xoooooooo o+.+ooo++++oooooooooo.+ Oooooo",
"oooooooo XXoooooooo oo+.+ooo+ ooooooooooX++ Oooooo",
"oooOoooo oooooooooo oo.+++o++++oooooooooX +ooooooo",
"oooooooo  oooooooooo o+o+o+.+.+.ooooooo   +ooooooo",
"ooooooooo oooooooooo o+ooo.++++.        o +ooooooo",
"ooooooooo oooooooooO ooooo.+++..oo Xoooo.+++oooooo",
"ooooooooo oooooooooO oooooo.+oooo  Xoooo+.++   ooo",
"oooooooo  oooooooooO  Xo++ooooooo Xoooo. X+.+O   o",
"oooooOOO XoooooooooO  +++ooooooo++oooo  Xo..+ooo o",
"oOOOO    Xoooooooooo ++  oooXXX  ++oo  ooooo.ooo  ",
"      X ooooooooooo+++oo         o++o ooooooooooo ",
"ooooooo  oooooooooo  ooooooooooo  o++ oooooooooooo",
"oooooooX ooooooooo  Xoooooooooooo   ++ ooooooooooo",
"oooooooo   ooooo   Xoo+ooooooo+ooooooo  oooooooooo",
"ooooooooXX      +++++++oooooOo++++++++o oooooooooo",
"oooooooooooooo+++++++++oooooo++++++++++ Xooooooooo",
"ooOoooooooooooo ooooOOOoooooooooooooooo Xooooooooo",
"OOOoooooooooX   ooooooooooooooooooooooo Xooooooooo",
"ooooooooooooX ooooooooooooooooooooooooo oooooooooo",
"ooooooooooooX ooooooooooooooooooooooooo oooooooooo"
};
