/* XPM */
static char *_aca810bf9434bdee5d1b7d5ddb1aa09tgNXJRIgr49XO5Lt[] = {
/* columns rows colors chars-per-pixel */
"50 50 6 1 ",
"  c black",
". c #343434",
"X c #2B4B23",
"o c gray25",
"O c #5B5C5B",
"+ c white",
/* pixels */
"ooooooooooooX oooooooooooooooooooooooo  oooooooooo",
"ooooooooooooX oooooooooooooooooooooooo ooooooooooo",
"ooooooooooooX oooooooooooooooooooooooo ooooooooooo",
"ooooooooooooX oooooooooooooooooooooooo ooooooooooo",
"oooooooooooo  oooooooooooooooooooooooo  XXXooooooo",
"oooooOOooooo ooo     OOOooooooooooooooX   oooooooo",
"oooooOoooooo     XXX   Oooooooooooooooooo oooooooo",
"ooooooooooo  XXXXooooo  OOooooooooooOoooo  ooooooo",
"oooooooooo  Xoooooooooo   ooooooooooOoooo   oooooo",
"oooooooooX Xooooooooooooo OooooooooOOOooo o  ooooo",
"ooooooOO   oooooooooooooo  OooooooooOoooo oo ooooo",
"oOOOOO   XXooOoooooooooooo   oooooooOooo  oo  oooo",
"       XooooOOOooooooooooooo  ooooooooo  Xooo     ",
"oooo ooooooooOooooooooooooooo o         Xooo  oooo",
"oooo oooooooooooooooooooooooo   ooXXXXXXoooo ooooo",
"oooo ooooooooooooooooooooooooo++++++oooooooo Xoooo",
"oooo oooooooooooooooooooooooo++++++++ooooooo Xoooo",
"oooo  oooooooooooooooooooooo++.++++++ooooooo Xoooo",
"ooooX oooooooooooooooooooooo++.++++++ooooooo Xoooo",
"oooooX  oooooooooooooooooooo++.+..++.+oooooo ooooo",
"ooOoooX   ooooooooOOOOOOoooo+.+...++..oooooo ooooo",
"oooooooXX               OOOO+.+++++.++oooooo  oooo",
"oooooooooooooooooooo XX     .+..++..+oooOoooX   oo",
"ooooooooooooooooooo  ooXX OO .+.+++++ooOOOoo  X Xo",
"  ooooooooooooooooo ooooo  OO...+...ooooOooo oo   ",
"o   ooooooooooooooo oooooo  O...+...oooooooo ooooo",
"ooX   oooooooooooo  oooo+oo Oo...+++oooooooo ooooo",
"ooXXX  ooooooooOOo ooo+++oo Ooooooooo++ooooo Ooooo",
"oooooo  oooOOOO    +++ooooo Ooooooooooo++ooo Ooooo",
"ooooooo o       oo++ooooooo  oooooooooooo++  Ooooo",
"ooooooo   Xoooooooo oooOoooo  oooooooooooo++Oooooo",
"oooooooo XXoooooooo ooooooooo ooooooooooXX  Oooooo",
"oooOoooo oooooooooo+.oooooooo  oooooooooX oooooooo",
"oooooooo  ooooooooo.+.oooooooo  ooooooo   oooooooo",
"ooooooooo oooooooooo++ooooooooo         o.+ooooooo",
"ooooooooo oooooooooO..+ooooooooooo Xooooo++ooooooo",
"ooooooooo oooooooooO +.+o.ooooooo  Xoooo  +    ooo",
"oooooooo  oooooooooO  +.+.ooooooo Xoooo  X+OOO   o",
"oooooOOO XoooooooooO  .+++.++++.o oooo  Xo+ooooo o",
"oOOOO    Xoooooooooo o+ +o.+++.. oooo  o.+++oooo  ",
"      X oooooooooooo o+o   .+    oooo oo+.++ooooo ",
"ooooooo  oooooooooo  ooooooooooo  ooo o.oo+.+ooooo",
"oooooooX ooooooooo  Xoooooooooooo      ooo..+ooooo",
"oooooooo   ooooo   Xoo+ooooooo+ooooooo  oooo.ooooo",
"ooooooooXX      +++++++oooooOo++++++++o oooooooooo",
"oooooooooooooo+++++++++oooooo++++++++++ Xooooooooo",
"ooOoooooooooooo ooooOOOoooooooooooooooo Xooooooooo",
"OOOoooooooooX   ooooooooooooooooooooooo Xooooooooo",
"ooooooooooooX ooooooooooooooooooooooooo oooooooooo",
"ooooooooooooX ooooooooooooooooooooooooo oooooooooo"
};
