/* XPM */
static char *_50d6546e33e4262c9e10fc9ce00a2911iAPuGHLRs2uVfeu[] = {
/* columns rows colors chars-per-pixel */
"50 50 6 1 ",
"  c black",
". c #343434",
"X c #2B4B23",
"o c gray25",
"O c #5B5C5B",
"+ c white",
/* pixels */
"ooooooooooooX oooooooooooooooooooooooo  oooooooooo",
"ooooooooooooX oooooooooooooooooooooooo ooooooooooo",
"ooooooooooooX oooooooooooooooooooooooo ooooooooooo",
"ooooooooooooX oooooooooooooooooooooooo ooooooooooo",
"oooooooooooo  oooooooooooooooooooooooo  XXXooooooo",
"oooooOOooooo ooo     OOOooooooooooooooX   oooooooo",
"oooooOoooooo     XXX   Oooooooooooooooooo oooooooo",
"ooooooooooo  XXXXooooo  OOooooooooooOoooo  ooooooo",
"oooooooooo  Xoooooooooo   oooo++++++Ooooo   oooooo",
"oooooooooX Xooooooooooooo Ooo++++++++Oooo o  ooooo",
"ooooooOO   oooooooooooooo  O++.++++++oooo oo ooooo",
"oOOOOO   XXooOoooooooooooo  ++.++++++ooo  oo  oooo",
"       XooooOOOooooooooooooo++.+..++.+o  Xooo     ",
"oooo ooooooooOoooooooooooooo+.+...++..  Xooo  oooo",
"oooo ooooooooooooooooooooooo+.+++++.++XXoooo ooooo",
"oooo ooooooooooooooooooooooo.+..++..+ooooooo Xoooo",
"oooo oooooooooooooooooooooooo.+.+++++ooooooo Xoooo",
"oooo  oooooooooooooooooooo+++...+...oooooooo Xoooo",
"ooooX ooooooooooooooooooo+.+....+...oooooooo Xoooo",
"oooooX  ooooooooooooooo+++.+.+...+++oooooooo ooooo",
"ooOoooX   ooooooooOO+++Ooo+..+......+ooooooo ooooo",
"oooooooXX          +.   O.+++..+..+.+++ooooo  oooo",
"ooooooooooooooooooo.+.X  .++.++..+.oooo++oooX   oo",
"ooooooooooooooooooo ++oXX .++...+.oooooOO+oo  X Xo",
"  ooooooooooooooooo ..+oo +.++++.+ooooooO.+o oo   ",
"o   ooooooooooooooo o+.+oo +....o.ooooooo++o ooooo",
"ooX   oooooooooooo  oo+.+oo++++oooooooooo++o ooooo",
"ooXXX  ooooooooOOo ooo.+++o +ooooooooooooo+o Ooooo",
"oooooo  oooOOOO    ooo+o+oo +ooooooooooooo+o Ooooo",
"ooooooo o       oo  oo+oooo++++ooooooooooo+  Ooooo",
"ooooooo   Xoooooooo oooOoo+.+.+.oooooooo.+++Oooooo",
"oooooooo XXoooooooo oooo++.++++.o+oooooo+.++Oooooo",
"oooOoooo oooooooooo ooo+++.+++..o++oooo.X +.+ooooo",
"oooooooo  oooooooooo o++ooo.+o  o++oooo   ..+ooooo",
"ooooooooo oooooooooo ++oooooooo   ++    o oo.ooooo",
"ooooooooo oooooooooO++oooooooooooo +ooooo oooooooo",
"ooooooooo oooooooooO.+ooooooooooo  ++ooo       ooo",
"oooooooo  oooooooooO. Xoooooooooo X++oo  XoOOO   o",
"oooooOOO Xooooooo+oO   XXoooooooo o.oo  Xooooooo o",
"oOOOO    Xooooooo++o o   oooXXX  ooo+  ooooooooo  ",
"      X oooooooooo++ ooo         o+++ ooooooooooo ",
"ooooooo  oooooooooo++ooooooooooo+++oo oooooooooooo",
"oooooooX ooooooooo  ++ooooooooo++      ooooooooooo",
"oooooooo   ooooo   Xo.+ooooooo+..ooooo  oooooooooo",
"ooooooooXX       X+++++oooooOo+++++oooo oooooooooo",
"ooooooooooooooo++++++o+oooooo++oo+++++o Xooooooooo",
"ooOoooooooooooo ooooOOOoooooooooooooooo Xooooooooo",
"OOOoooooooooX   ooooooooooooooooooooooo Xooooooooo",
"ooooooooooooX ooooooooooooooooooooooooo oooooooooo",
"ooooooooooooX ooooooooooooooooooooooooo oooooooooo"
};
