/* XPM */
static char *_fb58546fd384b03962fd88dcfbb3463Do3CDbQK0R4qvzxb[] = {
/* columns rows colors chars-per-pixel */
"50 50 8 1 ",
"  c black",
". c #1A1919",
"X c #292828",
"o c #2B4B23",
"O c gray25",
"+ c #5B5C5B",
"@ c #9D6923",
"# c #B87822",
/* pixels */
"OOOOOOOOOOOOo OOOOOOOOOOOOOOOOOOOOOOOO  OOOOOOOOOO",
"OOOOOOOOOOOOo OOOOOOOOOOOOOOOOOOOOOOOO OOOOOOOOOOO",
"OOOOOOOOOOOOo OOOOOOOOOOOOOOOOOOOOOOOO OOOOOOOOOOO",
"OOOOOOOOOOOOo OOOOOOOOOOOOOOOOOOOOOOOO OOOOOOOOOOO",
"OOOOOOOOOOOO  OOOOOOOOOOOOOOOOOOOOOOOO  oooOOOOOOO",
"OOOOOXXXXXXXXXXXXXXXXXXXXXXXXXXXXXXXXXXXXXXXXXOOOO",
"OOOOOX#######################################XOOOO",
"OOOOOX#@@@@@@@@@@@@@@@@@@@@@@@@@@@@@@@@@@@@@#XOOOO",
"OOOOOX#@###################################@#XOOOO",
"OOOOOX#@#XXXXXXXXXXXXXXXXXXXXXXXXXXXXXXXXX#@#XOOOO",
"OOOOOX#@#X+++++++                        X#@#XOOOO",
"O++++X#@#X+++++++                        X#@#XOOOO",
"     X#@#X+++++++                        X#@#X    ",
"OOOO X#@#X+++++++                        X#@#XOOOO",
"OOOO X#@#X+++++++OOOOOO                  X#@#XOOOO",
"OOOO X#@#X+++++++OOOOOO                  X#@#XOOOO",
"OOOO X#@#X+++++++OOOOOO                  X#@#XOOOO",
"OOOO X#@#X+++++++OOOOOO                  X#@#XOOOO",
"OOOOoX#@#X+++++++OOOOOOXXXXXX            X#@#XOOOO",
"OOOOOX#@#X+++++++OOOOOOXXXXXX            X#@#XOOOO",
"OO+OOX#@#X+++++++OOOOOOXXXXXX            X#@#XOOOO",
"OOOOOX#@#X+++++++OOOOOOXXXXXX            X#@#XOOOO",
"OOOOOX#@#X+++++++OOOOOOXXXXXX......      X#@#X  OO",
"OOOOOX#@#X+++++++OOOOOOXXXXXX......      X#@#Xo oO",
"  OOOX#@#X+++++++OOOOOOXXXXXX......      X#@#XO   ",
"O   OX#@#X+++++++OOOOOOXXXXXX......      X#@#XOOOO",
"OOo  X#@#X+++++++OOOOOOXXXXXX......      X#@#XOOOO",
"OOoooX#@#X+++++++OOOOOOXXXXXX......      X#@#XOOOO",
"OOOOOX#@#X+++++++OOOOOOXXXXXX......      X#@#XOOOO",
"OOOOOX#@#X+++++++OOOOOOXXXXXX......      X#@#XOOOO",
"OOOOOX#@#X+++++++OOOOOOXXXXXX......      X#@#XOOOO",
"OOOOOX#@#X+++++++OOOOOOXXXXXX......      X#@#XOOOO",
"OOO+OX#@#X+++++++OOOOOOXXXXXX......      X#@#XOOOO",
"OOOOOX#@#X+++++++OOOOOOXXXXXX......      X#@#XOOOO",
"OOOOOX#@#X+++++++OOOOOOXXXXXX......      X#@#XOOOO",
"OOOOOX#@#X+++++++OOOOOOXXXXXX......      X#@#XOOOO",
"OOOOOX#@#X+++++++OOOOOOXXXXXX......      X#@#X OOO",
"OOOOOX#@#X+++++++OOOOOOXXXXXX......      X#@#X   O",
"OOOOOX#@#X+++++++OOOOOOXXXXXX......      X#@#XOO O",
"O++++X#@#X+++++++OOOOOOXXXXXX......      X#@#XOO  ",
"     X#@#X+++++++OOOOOOXXXXXX......      X#@#XOOO ",
"OOOOOX#@#XXXXXXXXXXXXXXXXXXXXXXXXXXXXXXXXX#@#XOOOO",
"OOOOOX#@###################################@#XOOOO",
"OOOOOX#@@@@@@@@@@@@@@@@@@@@@@@@@@@@@@@@@@@@@#XOOOO",
"OOOOOX#######################################XOOOO",
"OOOOOXXXXXXXXXXXXXXXXXXXXXXXXXXXXXXXXXXXXXXXXXOOOO",
"OO+OOOOOOOOOOOO OOOO+++OOOOOOOOOOOOOOOO oOOOOOOOOO",
"+++OOOOOOOOOo   OOOOOOOOOOOOOOOOOOOOOOO oOOOOOOOOO",
"OOOOOOOOOOOOo OOOOOOOOOOOOOOOOOOOOOOOOO OOOOOOOOOO",
"OOOOOOOOOOOOo OOOOOOOOOOOOOOOOOOOOOOOOO OOOOOOOOOO"
};
