/* XPM */
static char *_5c582cf34064928a40a9758513b5775TlmWwRQNyYVnN2B3[] = {
/* columns rows colors chars-per-pixel */
"50 50 4 1 ",
"  c black",
". c #1E3A17",
"X c #2B4B23",
"o c #AE4224",
/* pixels */
"                                                  ",
"ooX.oooooo XXX...XXooooooooooooooooooXX..XX oooooo",
"oooXoooooo oooX.XooooooooooooooooooooooXXoo oooooo",
"oooooooooo ooooXooooooooooooooooooooooooooo oooooo",
"oooooooooo oooooooooooooooooooooooooooooooo oooooo",
"oooooooooo oooooooooooooooooooooooooooooooo oooooo",
"oooooooooo oooooooooooooooooooooooooooooooo oooooo",
"oooooooooX ooooooooooooooooooooooooooooooXo oooooo",
"oooooooXXX ooooooooooooooooooooooooooooooXX oooooo",
"ooooooXXX  oooooooooooooooooooooooooooooX..  ooooo",
"                                                  ",
"oooooooooooooooooooo oooooXXXXXXoooooooooooooooooo",
"oooooooooooooooooooo ooooooooooooooooooooooooooooo",
"oooooooooooooooooooo ooooooooooooooooooooooooooooo",
"oooooooooooooooooooo ooooooooooooooooooooooooooooo",
"oooooooooooooooooooo ooooooooooooooooooooooooooooo",
"oooooooooooooooooooo ooooooooooooooooooooooooooooo",
"oooooooooooooooooooo ooooooooooooooooooooooooooooo",
"ooooooooooooooooooXX Xoooooooooooooooooooooooooooo",
"ooooooooooooooooXX.  ..XXooooooooooooXXXXXXXoooooo",
"                                                  ",
"oooooooooo oooooooooooooooooooooooooooooooo oooooo",
"oooooooooo oooooooooooooooooooooooooooooooo oooooo",
"oooooooooo oooooooooooooooooooooooooooooooo oooooo",
"oooooooooo oooooooooooooooooooooooooooooooo oooooo",
"oooooooooo oooooooooooooooooooooooooooooooo oooooo",
"oooooooooX oooooooooooooooooooooooooooooooo oooooo",
"oooooooooX oooooooooooooooooooooooooooooXXo oooooo",
"oooooooo.. ooooooooooooooooooooooooooooo..X oooooo",
"ooooXXXX.  ooooooooooooXXXXXoooooooooooXX.  XXXooo",
"                                                  ",
"oooooooooooooooooooooooooooooooo ooooooooooooooooo",
"oooooooooooooooooooooooooooooooo ooooooooooooooooo",
"oooooooooooooooooooooooooooooooo ooooooooooooooooo",
"oooooooooooooooooooooooooooooooo ooooooooooooooooo",
"oooooooooooooooooooooooooooooooo ooooooooooooooooo",
"oooooooooooooooooooooooooooooooo ooooooooooooooooo",
"oooooooooooooooooooooooooooooooo ooooooooooooooooo",
"oooooooooooooXXXooooooooooooooXX ooooooooooXXXXooo",
"oooooooooooXXX.XXXoooooooooXXX..  ooooooXXX....XXo",
"                                                  ",
"oXXXXXXXooooooo oooooooooooooooooooooooooooooooooo",
"ooooooooooooooo oooooooooooooooooooooooooooooooooo",
"ooooooooooooooo oooooooooooooooooooooooooooooooooo",
"ooooooooooooooo oooooooooooooooooooooooooooooooooo",
"ooooooooooooooo oooooooooooooooooooooooooooooooooo",
"ooooooooooooooo oooooooooooooooooooooooooooooooooo",
"ooooooooooooooo oooooooooooooooooooooooooooooooooo",
"ooooooooooooooo oooooooooooooooooooooooooooooooooo",
"oXXXXoooooooooo oooXXXXXXXXXoooooooooooooooooooooo"
};
